<?xml version="1.0" standalone="no"?>
<!DOCTYPE svg PUBLIC "-//W3C//DTD SVG 20010904//EN"
 "http://www.w3.org/TR/2001/REC-SVG-20010904/DTD/svg10.dtd">
<svg version="1.0" xmlns="http://www.w3.org/2000/svg"
 width="1024.000000pt" height="1024.000000pt" viewBox="0 0 1024.000000 1024.000000"
 preserveAspectRatio="xMidYMid meet">
<metadata>
Created by potrace 1.16, written by Peter Selinger 2001-2019
</metadata>
<g transform="translate(0.000000,1024.000000) scale(0.100000,-0.100000)"
fill="currentColor" stroke="none">
<path d="M5125 8184 c-16 -2 -79 -9 -140 -15 -385 -39 -737 -168 -1086 -397
-193 -127 -323 -234 -500 -411 -169 -170 -274 -296 -479 -581 -241 -334 -292
-400 -359 -461 -95 -87 -194 -159 -288 -210 -46 -24 -81 -48 -80 -54 5 -16 67
-34 117 -34 123 -2 262 42 420 133 63 36 98 51 105 45 6 -6 10 -76 9 -172 0
-135 -4 -176 -23 -247 -62 -231 -157 -426 -342 -700 -173 -255 -314 -378 -516
-447 -46 -15 -83 -32 -83 -37 0 -20 81 -85 127 -101 111 -39 285 -30 443 23
194 64 436 223 582 381 121 130 261 382 431 776 197 456 274 604 498 954 173
271 311 416 562 592 92 65 66 37 -50 -52 -203 -157 -360 -334 -515 -582 -95
-152 -279 -529 -378 -772 -92 -227 -221 -498 -306 -642 -31 -54 -59 -102 -62
-107 -3 -5 24 11 60 37 90 64 184 107 236 107 37 0 42 3 42 23 0 62 147 523
234 735 102 249 227 481 358 665 201 283 480 529 750 660 168 81 403 158 558
181 74 11 39 -3 -71 -29 -372 -89 -786 -364 -1086 -720 -258 -306 -427 -652
-662 -1354 -54 -161 -60 -186 -47 -199 8 -8 19 -11 25 -7 7 3 45 58 86 120
122 184 223 282 363 348 63 30 74 32 177 32 l110 0 1 110 c2 251 129 592 334
895 46 68 36 36 -14 -44 -89 -144 -166 -322 -206 -475 -11 -42 -29 -150 -40
-241 -25 -203 -38 -277 -54 -308 -11 -21 -14 -22 -25 -8 -26 31 -71 9 -71 -34
0 -21 84 -120 103 -120 5 0 48 29 96 64 161 120 300 180 403 174 l53 -3 -101
-76 c-192 -144 -375 -241 -564 -299 -58 -18 -123 -38 -145 -45 l-40 -13 74
-34 73 -35 -103 -55 c-122 -65 -186 -89 -293 -113 -70 -16 -77 -19 -61 -31 10
-7 23 -15 29 -17 15 -6 14 -6 -84 -62 -127 -71 -349 -209 -350 -216 0 -4 20
-12 45 -18 25 -6 45 -15 45 -19 -1 -12 -222 -140 -305 -177 l-79 -34 43 -18
42 -18 -126 -94 c-187 -140 -277 -245 -372 -436 -111 -222 -155 -481 -123
-731 53 -421 322 -786 703 -952 201 -89 398 -125 672 -125 508 1 970 129 1408
389 111 66 154 95 397 271 234 168 437 279 629 343 146 49 239 64 366 57 182
-9 274 -56 336 -171 62 -115 70 -217 24 -305 -35 -68 -155 -145 -246 -157
-181 -25 -351 134 -290 270 34 77 122 109 195 71 16 -9 30 -14 32 -12 11 10
-21 78 -48 104 -61 59 -138 69 -223 29 -118 -55 -185 -182 -185 -351 0 -135
48 -250 149 -357 112 -120 264 -177 467 -178 278 0 517 146 631 387 60 125 76
209 70 348 -12 267 -146 469 -398 604 -98 52 -189 79 -309 90 -235 22 -516
-35 -890 -183 -138 -54 -163 -61 -227 -61 l-72 0 -3 -35 c-3 -31 -9 -38 -53
-62 -27 -15 -59 -28 -70 -28 -33 0 -65 33 -79 80 -12 43 -16 46 -67 60 -30 8
-60 19 -66 23 -8 5 -13 4 -13 -2 0 -6 -7 -11 -15 -11 -8 0 -15 4 -15 8 0 11
60 28 130 37 64 8 95 23 129 59 33 35 56 33 102 -9 34 -30 46 -35 90 -35 55 0
109 22 109 45 0 21 17 19 56 -6 l34 -21 0 27 c0 31 -25 95 -38 95 -5 0 -12 19
-16 42 -10 60 -39 88 -91 88 -29 0 -47 6 -60 20 -45 49 -159 29 -421 -76 -89
-35 -166 -64 -170 -64 -5 0 28 20 73 44 113 59 216 139 309 239 l78 86 33 -38
c39 -46 109 -81 161 -81 22 0 60 -3 86 -6 l46 -7 -35 -38 c-19 -22 -35 -43
-35 -47 0 -13 77 -72 94 -72 8 0 39 9 68 21 29 11 108 32 175 45 159 32 265
69 448 159 167 82 206 95 283 95 90 0 156 -40 223 -137 42 -60 75 -74 201 -84
124 -10 136 -14 199 -76 56 -54 108 -70 154 -47 30 15 30 15 68 -27 42 -48 44
-44 18 39 -10 34 -16 72 -14 86 3 16 -3 39 -17 61 -24 38 -121 110 -164 121
-14 3 -26 10 -26 16 0 5 8 7 18 4 9 -3 44 -12 77 -19 78 -18 117 -39 176 -94
55 -51 104 -65 143 -40 24 16 26 15 48 -11 13 -15 31 -39 40 -52 17 -25 17
-24 17 42 1 71 -27 165 -54 188 -24 20 -18 26 20 22 30 -4 39 -11 56 -43 21
-41 25 -44 48 -30 13 8 13 17 -1 68 -9 32 -14 60 -11 63 3 3 36 -28 75 -69 77
-82 79 -79 31 48 -38 104 -90 179 -143 206 -14 6 -51 15 -83 19 -34 4 -81 19
-116 37 -46 24 -82 33 -173 45 -142 17 -266 52 -378 105 -56 27 -104 43 -142
46 l-58 6 -76 -77 c-42 -42 -90 -84 -106 -92 -29 -15 -31 -15 -58 11 -16 15
-43 31 -62 36 -32 8 -32 9 7 5 22 -2 48 -7 57 -11 13 -5 41 17 111 87 143 142
187 257 187 480 -1 300 -78 442 -495 907 -131 146 -188 226 -211 293 -31 93
-4 216 57 261 61 44 172 27 225 -36 l27 -32 -38 -7 c-79 -17 -125 -73 -125
-153 0 -64 24 -110 83 -156 56 -45 67 -47 92 -19 19 21 60 26 85 10 13 -9 13
-12 -1 -23 -31 -24 -59 -82 -59 -123 0 -54 39 -129 97 -187 43 -43 86 -67 99
-55 2 3 0 17 -6 32 -18 47 -12 102 13 132 33 38 110 45 150 14 36 -29 67 -90
67 -134 0 -50 16 -84 61 -133 46 -50 59 -79 52 -116 -7 -35 -57 -85 -108 -106
l-39 -18 29 -19 c43 -28 149 -27 191 3 53 38 66 79 58 186 -6 90 -6 94 19 123
l26 29 1 -78 c0 -102 17 -143 69 -165 35 -15 39 -20 33 -42 -14 -52 -6 -83 31
-116 81 -75 257 -86 336 -22 l28 23 -25 33 c-29 38 -61 42 -99 12 -26 -21 -43
-19 -43 5 0 26 -29 45 -60 38 -30 -5 -30 -5 -30 43 0 44 -4 51 -51 97 -38 36
-45 47 -27 42 72 -23 118 -72 118 -127 l0 -28 75 0 c86 0 130 -17 195 -77 44
-39 66 -40 113 -3 27 21 68 115 66 153 0 21 -1 21 -9 2 -10 -24 -11 74 -1 120
4 18 1 40 -6 55 -7 14 -13 34 -13 46 0 47 -46 65 -177 69 -75 2 -100 6 -121
22 -36 26 -62 79 -62 125 0 32 3 37 29 43 59 13 120 111 128 206 9 91 -3 140
-53 218 -26 40 -46 83 -46 100 -1 33 17 61 38 61 18 0 18 14 0 29 -11 10 -26
9 -65 -3 -28 -8 -51 -13 -51 -11 0 2 5 16 12 30 10 22 9 28 -3 36 -26 17 -78
10 -89 -11 -9 -17 -15 -18 -31 -10 -11 6 -25 22 -31 36 -10 21 -8 28 17 54 16
17 49 40 73 51 126 61 154 242 56 358 -15 18 -56 51 -91 73 -75 48 -125 103
-142 158 -10 33 -9 49 4 92 19 65 19 93 -1 151 -28 83 -121 147 -214 147 l-35
0 37 -25 c41 -28 78 -97 85 -158 3 -25 -4 -76 -16 -124 -25 -97 -27 -172 -5
-216 9 -18 37 -53 61 -79 44 -45 46 -48 41 -98 -3 -32 -12 -59 -25 -71 -19
-19 -19 -19 -53 33 -46 69 -111 117 -207 150 -90 32 -145 73 -174 131 -18 34
-21 53 -17 116 l5 76 -47 -54 c-26 -30 -63 -79 -81 -110 -32 -52 -34 -60 -34
-148 0 -51 -1 -93 -2 -93 -2 0 -30 20 -63 44 -115 85 -287 135 -417 122 -101
-10 -101 -11 -33 -75 66 -62 78 -88 33 -69 -16 6 -66 11 -113 12 -98 0 -169
-20 -271 -80 -61 -36 -62 -37 -38 -50 23 -12 23 -13 4 -20 -82 -28 -116 -51
-188 -126 -43 -45 -91 -98 -108 -119 l-30 -38 61 -13 60 -12 -45 -46 c-28 -28
-56 -72 -74 -113 -30 -73 -50 -100 -96 -133 l-29 -21 24 -13 c12 -7 49 -15 82
-18 l59 -5 -6 -41 c-4 -23 -10 -44 -14 -48 -10 -11 -91 11 -144 40 -100 54
-209 212 -274 395 -38 107 -43 260 -13 358 39 130 111 248 224 368 119 125
332 251 495 292 152 38 307 15 383 -58 34 -33 54 -26 116 42 71 78 94 132 100
236 6 112 -13 179 -69 242 -22 26 -45 47 -50 47 -5 0 -9 -15 -9 -32 0 -89 -51
-168 -108 -168 -16 0 -55 9 -88 21 -93 32 -366 80 -511 88 -273 16 -670 -28
-945 -105 -380 -106 -787 -352 -1099 -664 -221 -220 -319 -369 -539 -815 -210
-426 -404 -785 -423 -785 -13 0 1 36 73 180 37 75 116 239 175 365 301 645
425 845 675 1096 300 300 689 551 1040 669 416 139 891 166 1275 72 88 -22
182 -42 208 -45 l48 -5 -16 27 c-43 69 -193 172 -329 226 -95 37 -233 71 -368
90 -107 15 -469 28 -533 19z m-946 -921 c-8 -9 -34 -35 -59 -57 -141 -124
-311 -314 -413 -458 -27 -38 -50 -68 -53 -68 -11 0 68 130 120 195 76 95 223
246 326 333 87 74 103 85 79 55z m-21 -200 c-98 -96 -155 -165 -240 -288 -176
-255 -282 -457 -498 -950 -173 -393 -281 -595 -400 -745 -62 -80 -210 -220
-210 -200 0 7 36 51 81 98 158 169 216 261 332 522 125 281 290 637 363 782
136 274 305 535 433 671 62 66 209 196 222 197 4 0 -34 -39 -83 -87z m974 -89
c-170 -190 -286 -418 -371 -729 -68 -245 -130 -429 -178 -522 -42 -83 -71
-127 -59 -93 56 171 97 314 141 494 30 122 66 253 80 291 41 109 119 254 183
341 67 91 242 287 250 280 2 -3 -18 -30 -46 -62z m2128 -292 c30 -32 82 -76
115 -99 73 -50 99 -77 120 -125 16 -40 20 -113 7 -122 -5 -3 -20 18 -33 46
-34 73 -64 106 -110 118 -21 6 -57 28 -78 48 -37 35 -40 36 -45 17 -3 -11 -6
-47 -6 -81 0 -56 -2 -62 -27 -73 -24 -11 -29 -10 -41 6 -17 23 -9 88 18 150
22 49 26 123 10 154 -21 39 14 19 70 -39z m-3736 -272 c-70 -173 -357 -759
-448 -915 -86 -148 -250 -400 -267 -410 -15 -10 -16 -12 76 135 174 277 432
763 540 1015 56 131 146 318 151 313 2 -2 -22 -64 -52 -138z m3374 14 c50 -75
102 -125 172 -163 64 -36 54 -40 -25 -10 -75 28 -148 88 -185 152 -57 100 -25
118 38 21z m-2663 -254 c-29 -74 -72 -195 -94 -269 -22 -73 -43 -136 -46 -139
-31 -32 11 146 72 298 47 120 112 255 118 248 2 -2 -21 -64 -50 -138z m995 53
c69 -128 184 -276 377 -487 91 -99 206 -253 198 -265 -8 -14 -50 -14 -75 -1
-11 6 -39 41 -63 78 -24 37 -73 101 -108 142 -139 161 -254 319 -304 418 -26
52 -77 192 -70 192 2 0 22 -35 45 -77z m-166 -413 c1 -59 -1 -65 -19 -65 -19
0 -20 7 -20 220 0 281 15 327 28 85 5 -96 10 -204 11 -240z m-177 202 c-10
-176 -12 -185 -34 -199 -13 -9 -26 -13 -30 -10 -3 4 1 53 10 109 16 103 57
291 63 286 1 -2 -3 -86 -9 -186z m2943 73 c32 -17 58 -54 67 -95 4 -23 2 -30
-11 -30 -9 0 -16 8 -16 20 0 63 -61 109 -147 111 -40 1 -44 2 -23 9 31 11 94
4 130 -15z m-1480 -51 c0 -8 -4 -14 -10 -14 -5 0 -10 4 -10 9 0 5 -3 18 -7 28
-6 16 -5 16 10 4 9 -7 17 -20 17 -27z m35 -104 c0 -7 -6 -15 -12 -17 -8 -3
-13 4 -13 17 0 13 5 20 13 18 6 -3 12 -11 12 -18z m1354 -76 c-25 -48 -41 9
-17 62 l12 27 9 -33 c6 -23 4 -41 -4 -56z m-106 11 c9 -32 25 -67 34 -77 15
-17 15 -18 -6 -18 -36 0 -81 52 -81 93 0 85 27 86 53 2z m-2382 -110 c42 -97
47 -125 25 -125 -32 0 -74 50 -85 101 -31 144 2 158 60 24z m1234 -43 c-7 -7
-45 29 -45 41 0 6 11 0 25 -13 14 -13 23 -26 20 -28z m-954 -154 c48 -67 49
-68 24 -68 -36 0 -79 24 -99 55 -18 27 -56 129 -56 149 0 17 78 -64 131 -136z
m993 68 c29 -49 31 -56 16 -56 -5 0 -21 23 -35 50 -31 62 -16 66 19 6z m140
-61 c15 -19 22 -35 16 -35 -13 0 -60 49 -60 61 0 19 19 7 44 -26z m-1594 -13
c-19 -10 -37 -16 -40 -14 -9 7 34 32 54 32 16 0 12 -5 -14 -18z m1720 -35 c0
-6 -11 0 -25 13 -14 13 -25 28 -25 33 0 6 11 0 25 -13 14 -13 25 -28 25 -33z
m-180 -32 c13 -21 30 -35 41 -35 11 0 17 -4 14 -10 -10 -16 -58 14 -78 49 -25
43 -4 39 23 -4z m-1420 11 c0 -9 -63 -67 -68 -62 -6 7 47 66 60 66 4 0 8 -2 8
-4z m1696 -69 c167 -204 250 -377 259 -540 l5 -82 -15 70 c-14 69 -62 195 -74
195 -14 0 -51 -32 -51 -44 0 -7 13 -31 29 -54 24 -32 27 -41 15 -46 -10 -4
-13 -13 -8 -31 4 -15 2 -25 -5 -25 -6 0 -11 6 -11 13 0 8 -13 41 -29 74 l-29
60 -39 -7 c-21 -3 -37 -11 -36 -17 14 -66 15 -97 3 -86 -7 6 -13 31 -15 56 -3
42 -35 94 -49 79 -3 -3 -6 2 -6 12 0 16 3 15 26 -3 30 -24 82 -28 90 -7 7 18
-35 116 -49 116 -27 0 -77 -26 -78 -40 0 -10 -2 -11 -6 -2 -2 6 -14 12 -26 12
-32 0 -9 15 46 30 26 7 47 17 47 22 0 5 -16 33 -35 63 -19 31 -32 61 -29 70 9
21 25 7 65 -58 18 -29 37 -57 43 -62 6 -6 25 -37 41 -70 22 -43 36 -60 50 -60
32 0 32 49 0 96 -21 32 -30 39 -48 34 -21 -6 -21 -5 -3 9 18 15 18 16 -4 53
-29 50 -110 163 -116 163 -3 0 -16 -12 -30 -27 l-24 -28 -40 45 c-22 25 -40
48 -40 53 0 17 24 5 56 -29 33 -36 35 -37 54 -19 12 11 18 25 14 34 -3 9 -8
22 -11 29 -12 29 15 7 63 -51z m1272 -24 c6 -16 14 -39 17 -53 5 -20 2 -18
-15 10 -33 53 -48 61 -100 55 -33 -5 -41 -4 -30 4 8 6 38 11 66 11 47 0 52 -2
62 -27z m-1449 -49 c12 -20 20 -38 18 -41 -6 -5 -57 56 -57 68 0 20 19 7 39
-27z m-1604 15 c-10 -15 -86 -69 -98 -69 -14 0 76 79 91 80 7 0 10 -5 7 -11z
m265 -13 c-25 -12 -66 -35 -92 -50 -68 -39 -80 -27 -16 16 76 51 89 57 123 57
29 0 28 0 -15 -23z m-530 -25 c0 -6 -4 -13 -10 -16 -5 -3 -10 1 -10 9 0 9 5
16 10 16 6 0 10 -4 10 -9z m1222 -27 c-12 -8 -27 -12 -33 -8 -14 8 8 24 36 24
18 0 18 -1 -3 -16z m592 -44 c-6 -5 -24 21 -24 34 0 6 6 1 14 -10 8 -10 12
-21 10 -24z m92 7 c-14 -10 -15 -18 -7 -40 6 -15 7 -36 2 -49 -6 -17 -9 -11
-14 32 -5 38 -3 56 6 62 20 13 32 9 13 -5z m-1241 -17 c-3 -5 -14 -10 -23 -10
-9 0 -32 -9 -51 -21 -37 -22 -81 -41 -81 -34 0 2 28 20 63 39 60 34 105 47 92
26z m699 -19 c5 -8 -84 -3 -93 5 -2 2 16 4 42 4 25 0 48 -4 51 -9z m-964 -11
c0 -5 -4 -10 -9 -10 -6 0 -13 5 -16 10 -3 6 1 10 9 10 9 0 16 -4 16 -10z m840
0 c0 -5 -4 -10 -9 -10 -6 0 -13 5 -16 10 -3 6 1 10 9 10 9 0 16 -4 16 -10z
m-459 -70 c-60 -51 -73 -59 -93 -51 -22 9 -22 9 -3 16 52 17 65 26 92 59 17
22 37 36 51 36 18 0 9 -11 -47 -60z m284 -1 c139 -39 173 -45 125 -23 -57 27
-16 27 50 1 147 -60 246 -147 312 -276 37 -71 37 -73 20 -99 l-17 -26 -3 34
c-3 30 -23 60 -41 60 -12 0 -6 -106 7 -128 13 -22 15 -22 26 -6 12 16 13 16
20 -1 3 -10 1 -23 -5 -31 -6 -7 -8 -32 -5 -61 4 -34 3 -42 -3 -28 -5 11 -10
32 -10 46 -1 31 -24 54 -46 45 -22 -8 -18 -53 6 -70 21 -14 21 -16 4 -32 -12
-12 -15 -26 -11 -46 3 -17 2 -27 -4 -23 -5 3 -12 27 -15 53 -9 66 -24 102 -57
137 -19 21 -28 42 -28 64 0 26 -4 32 -17 29 -20 -4 -28 -37 -18 -75 5 -20 11
-24 30 -20 28 5 32 -5 10 -23 -14 -12 -14 -15 0 -36 8 -13 15 -26 15 -30 0
-13 -32 20 -46 49 -11 21 -21 28 -35 24 -19 -5 -69 13 -69 25 0 4 15 2 32 -3
40 -11 38 -11 38 2 0 5 -15 16 -34 24 -47 20 -55 36 -11 22 47 -14 55 -2 22
31 l-27 27 -37 -20 c-30 -17 -37 -18 -41 -6 -3 8 -16 26 -29 39 -23 23 -30 24
-90 18 -44 -5 -63 -3 -58 4 3 5 24 10 47 10 33 0 39 3 34 17 -4 9 -1 20 5 24
24 15 0 36 -49 43 -32 4 -59 15 -76 31 -34 31 -33 35 9 28 23 -4 43 0 60 11
29 19 31 33 9 57 -15 16 -13 18 30 24 25 4 46 10 46 14 0 8 -26 23 -83 45 -33
14 -39 14 -44 1 -3 -9 -3 -23 -1 -33 4 -15 -3 -17 -49 -17 -29 0 -53 3 -53 8
0 4 9 7 21 7 52 0 84 55 39 67 -11 3 -20 9 -20 14 0 11 -12 14 115 -22z m388
-15 c35 -32 44 -35 77 -30 30 5 41 2 57 -17 25 -27 46 -67 40 -74 -3 -3 -12 8
-20 23 -8 15 -23 29 -33 30 -11 1 -30 5 -44 9 -14 4 -37 9 -52 12 -16 3 -28 8
-28 12 0 11 -79 61 -95 61 -8 0 -17 5 -21 12 -5 8 5 9 36 4 29 -5 56 -18 83
-42z m432 -24 c3 -5 -1 -10 -9 -10 -8 0 -18 5 -21 10 -3 6 1 10 9 10 8 0 18
-4 21 -10z m-1035 -59 c34 -7 48 -6 66 6 16 10 34 13 56 8 48 -10 72 -27 28
-20 -27 5 -47 0 -85 -21 -28 -15 -58 -34 -67 -42 -21 -17 -23 -10 -6 17 16 26
1 44 -52 61 -22 7 -40 17 -40 22 0 5 13 2 29 -6 16 -9 48 -20 71 -25z m1097
-38 l48 -12 -49 3 c-47 4 -76 22 -76 50 0 5 6 1 14 -9 8 -11 36 -25 63 -32z
m-313 -29 c9 -3 16 -10 16 -15 0 -4 -7 -6 -15 -3 -20 8 -19 3 10 -52 14 -25
22 -51 19 -56 -3 -5 -16 13 -29 40 -13 28 -33 60 -44 71 l-21 21 24 0 c13 0
31 -3 40 -6z m-889 -14 c7 -12 -2 -12 -30 0 -19 8 -19 9 2 9 12 1 25 -3 28 -9z
m1217 -65 c13 -8 18 -15 12 -15 -26 0 -54 32 -53 63 l1 32 9 -32 c5 -18 19
-39 31 -48z m-1002 -13 l-21 -17 25 -24 c14 -14 26 -29 26 -35 0 -6 -13 4 -30
22 -32 35 -38 57 -17 65 28 12 38 6 17 -11z m-649 -27 c177 -26 297 -84 414
-200 117 -116 173 -264 161 -426 -6 -81 -36 -179 -63 -201 -15 -11 -16 -11 -9
7 15 37 28 189 23 260 -6 87 -40 182 -68 190 -28 9 -34 0 -21 -30 7 -15 20
-25 32 -25 22 0 27 -16 8 -22 -10 -4 -9 -14 1 -45 7 -23 10 -46 7 -52 -14 -22
-34 -10 -43 27 -6 27 -14 38 -31 40 -19 3 -21 8 -16 37 8 50 -37 86 -65 52 -8
-10 -6 -22 7 -48 12 -24 16 -48 12 -84 -3 -28 -8 -45 -13 -38 -4 6 -4 18 -1
27 3 9 0 24 -7 32 -8 9 -23 35 -34 58 -17 34 -25 41 -49 41 -40 0 -42 -16 -6
-51 34 -33 38 -46 13 -43 -10 1 -31 -1 -46 -6 -25 -6 -28 -12 -25 -36 3 -16 1
-29 -4 -29 -4 0 -8 9 -8 19 0 11 -17 33 -37 50 -21 17 -31 31 -23 31 7 0 23
-9 35 -20 20 -18 26 -19 51 -8 16 6 31 13 33 15 2 1 -8 22 -22 47 l-26 46 25
0 c31 0 31 23 1 43 -18 11 -34 13 -68 7 -48 -9 -67 -5 -25 6 14 3 26 12 26 20
0 11 -10 13 -42 8 -42 -6 -43 -6 -20 11 22 16 22 18 6 36 -14 15 -26 18 -63
14 -115 -13 -171 -14 -171 -5 0 6 16 10 35 10 37 0 89 26 80 40 -3 5 0 12 6
16 8 4 9 3 5 -5 -6 -8 8 -10 51 -5 62 7 79 16 69 33 -10 15 -79 14 -94 -1 -9
-9 -38 -12 -84 -11 -58 2 -76 -1 -100 -18 -25 -18 -38 -20 -91 -15 -96 11
-107 27 -17 24 78 -1 120 6 120 23 0 6 -6 7 -12 3 -10 -6 -10 -4 0 7 20 21 15
26 -35 35 l-48 8 44 6 c50 6 73 29 55 58 -15 23 -97 29 -130 8 -36 -24 -38
-19 -4 14 29 29 34 30 118 30 48 0 130 -7 183 -15z m1796 -67 c-2 -13 -4 -3
-4 22 0 25 2 35 4 23 2 -13 2 -33 0 -45z m-411 -86 c-11 -10 -14 3 -8 33 l7
30 3 -28 c2 -16 1 -31 -2 -35z m-1751 28 c-10 -11 -25 -20 -34 -20 -10 0 -4 8
14 19 39 25 42 25 20 1z m1170 -1 c16 -15 -50 -10 -71 6 -17 13 -16 14 21 8
22 -3 44 -10 50 -14z m85 -4 c34 -36 20 -40 -21 -5 -22 19 -29 29 -18 30 8 0
26 -11 39 -25z m-170 -25 c0 -5 -4 -10 -9 -10 -6 0 -13 5 -16 10 -3 6 1 10 9
10 9 0 16 -4 16 -10z m579 -25 c3 -12 -13 -9 -17 4 -2 7 0 11 6 7 5 -3 10 -8
11 -11z m-341 -53 c3 -9 -2 -13 -14 -10 -9 1 -19 9 -22 16 -3 9 2 13 14 10 9
-1 19 -9 22 -16z m56 -27 c9 -19 25 -39 38 -45 22 -9 22 -9 -4 -9 -21 -1 -29
5 -34 24 -3 13 -12 29 -20 36 -8 6 -11 15 -8 20 9 15 13 11 28 -26z m-1469 5
c8 -13 -25 -13 -45 0 -12 8 -9 10 12 10 15 0 30 -4 33 -10z m275 -8 c0 -10
-63 -38 -105 -47 l-30 -7 33 21 c17 11 32 24 32 28 0 5 16 9 35 10 19 2 35 -1
35 -5z m154 -92 c-3 -2 -19 -3 -37 -2 -18 1 -41 -4 -51 -11 -29 -21 -4 -63 43
-71 20 -3 50 -17 66 -31 l30 -25 -35 19 c-42 24 -102 30 -124 12 -18 -15 -21
-4 -7 32 11 27 0 35 -71 57 -21 6 -38 16 -38 22 0 6 7 7 18 2 44 -19 97 -16
131 10 32 24 35 24 56 8 13 -9 21 -19 19 -22z m-1349 6 c18 -13 18 -14 -8 -9
-15 3 -27 9 -27 14 0 13 13 11 35 -5z m1461 -22 c19 -20 34 -40 34 -43 -1 -17
-29 -40 -56 -46 l-29 -7 33 22 c43 29 42 35 -16 83 -23 18 -28 27 -17 27 9 0
32 -16 51 -36z m1023 -51 c9 -7 11 -12 4 -13 -16 0 -53 49 -53 69 1 9 7 4 17
-14 9 -16 23 -35 32 -42z m-2614 28 c-3 -6 -11 -11 -17 -11 -6 0 -6 6 2 15 14
17 26 13 15 -4z m198 -50 c-11 -14 -23 -35 -27 -45 -5 -14 -10 -16 -18 -8 -8
8 -7 18 6 36 9 15 20 26 25 26 5 0 12 12 17 28 6 22 8 23 12 8 2 -10 -5 -30
-15 -45z m1023 44 c-11 -8 -25 -15 -30 -15 -6 0 -2 7 8 15 11 8 25 15 30 15 6
0 2 -7 -8 -15z m1539 0 c-16 -7 -36 -10 -45 -7 -10 5 -3 9 20 13 53 10 58 9
25 -6z m-2804 -58 c-8 -8 -11 -7 -11 4 0 20 13 34 18 19 3 -7 -1 -17 -7 -23z
m2775 -75 c-6 -6 -26 43 -25 61 0 7 7 -3 15 -22 8 -18 13 -36 10 -39z m-2651
48 c4 -6 -5 -10 -20 -10 -15 0 -24 4 -20 10 3 6 12 10 20 10 8 0 17 -4 20 -10z
m35 -36 c0 -3 -14 -22 -31 -44 -19 -24 -29 -46 -27 -61 3 -21 9 -24 58 -27
l55 -3 70 71 c38 38 75 70 82 70 24 0 13 -17 -33 -49 -25 -19 -50 -44 -56 -57
-10 -22 -8 -28 23 -54 38 -33 26 -41 -14 -10 -14 11 -30 20 -35 20 -18 0 -24
-20 -12 -35 10 -12 10 -15 0 -15 -8 0 -22 -8 -32 -17 -18 -16 -19 -16 -8 11
14 39 6 46 -50 46 -41 0 -55 -5 -86 -32 -32 -29 -36 -36 -31 -70 l5 -38 -29
21 -29 21 -35 -22 c-36 -22 -115 -110 -115 -128 0 -6 6 -12 13 -15 6 -2 9 -8
4 -13 -14 -14 -40 23 -33 48 7 27 81 109 113 127 41 21 143 112 143 126 0 8
-7 18 -16 23 -18 10 -11 32 10 32 7 0 27 18 45 40 28 35 51 51 51 34z m2565
-34 c8 -13 -5 -13 -25 0 -13 8 -13 10 2 10 9 0 20 -4 23 -10z m-2765 -15 c-6
-8 -9 -19 -5 -24 4 -7 0 -8 -10 -5 -14 6 -14 8 1 25 20 22 32 26 14 4z m2824
-22 c-7 -31 -12 -38 -18 -32 -7 7 6 59 15 59 5 0 6 -12 3 -27z m-2910 2 c20
-8 36 -18 36 -21 0 -3 -16 -24 -35 -47 -43 -50 -46 -83 -9 -98 15 -5 25 -12
22 -15 -11 -10 -60 17 -65 36 -5 20 -5 20 -33 0 -16 -11 -33 -20 -39 -20 -6 0
-8 -6 -5 -14 3 -8 -11 -38 -30 -68 -20 -29 -36 -61 -36 -70 0 -10 -4 -18 -10
-18 -5 0 -16 -15 -24 -32 -7 -18 -28 -46 -45 -62 l-31 -30 0 26 c0 20 6 27 23
30 16 2 30 20 52 64 17 33 45 81 63 108 35 48 34 64 -5 89 -27 17 -12 25 16 9
28 -16 30 -15 69 11 37 24 100 94 91 101 -2 1 -15 10 -29 19 -30 21 -23 21 24
2z m3367 -25 c-13 -11 -29 -20 -36 -20 -7 0 -18 -7 -25 -15 -7 -8 -29 -15 -49
-15 -20 0 -43 -6 -49 -12 -7 -7 -20 -13 -29 -13 -9 0 -18 -6 -21 -13 -5 -15
67 -7 108 12 14 6 38 9 53 6 25 -4 21 -7 -33 -24 -45 -14 -60 -24 -60 -38 0
-13 8 -18 29 -18 17 0 33 -4 36 -10 4 -6 -8 -10 -29 -10 -42 0 -86 -18 -86
-35 0 -19 -38 -25 -52 -8 -18 22 -97 12 -139 -18 -76 -54 -145 -68 -81 -16 28
24 30 52 2 43 -11 -3 -29 -9 -40 -12 -16 -5 -20 -2 -20 15 0 11 -4 21 -10 21
-18 0 -10 36 13 57 40 36 51 39 44 10 -6 -22 -4 -24 16 -20 12 4 34 15 49 25
85 59 284 122 403 126 l30 1 -24 -19z m-3543 -22 c-8 -12 -21 -24 -29 -26 -8
-3 -3 7 10 22 30 32 39 34 19 4z m760 -28 c-21 -42 -28 -49 -28 -26 0 12 36
66 44 66 2 0 -5 -18 -16 -40z m2942 -45 c24 -14 24 -14 3 -15 -12 0 -25 5 -29
11 -3 6 -19 9 -35 7 -16 -3 -29 -1 -29 4 0 13 63 8 90 -7z m-2992 -18 c9 -10
-1 -16 -47 -25 -61 -13 -178 -80 -186 -107 -15 -48 -18 -50 -25 -17 -11 49
-15 50 -60 23 -8 -5 -31 -17 -51 -27 -46 -22 -76 -68 -58 -90 10 -13 8 -13
-15 -4 -15 5 -39 10 -54 10 -26 1 -26 1 8 16 46 20 80 53 73 70 -4 10 3 14 22
14 21 0 29 7 38 30 6 17 15 30 20 30 4 0 5 -5 1 -11 -9 -15 115 -2 134 13 23
20 157 87 173 87 9 1 21 -5 27 -12z m-840 -112 c-38 -49 -74 -92 -80 -94 -17
-6 8 33 62 95 38 44 50 65 47 85 -3 23 -1 24 19 15 21 -10 19 -13 -48 -101z
m4680 32 c41 -27 108 -117 88 -117 -8 0 -28 18 -46 39 -58 74 -79 81 -233 78
-81 -1 -140 2 -146 8 -7 7 42 11 147 12 147 3 158 1 190 -20z m329 -4 c6 -17
-38 -28 -48 -12 -4 7 -5 17 -2 22 7 12 46 4 50 -10z m-771 -13 c13 0 24 -4 24
-10 0 -11 -39 -13 -64 -4 -9 3 -16 11 -16 16 0 6 7 7 16 4 9 -3 27 -6 40 -6z
m70 -17 c-10 -10 -19 5 -10 18 6 11 8 11 12 0 2 -7 1 -15 -2 -18z m-4516 -73
c-15 -28 -23 -20 -14 15 4 17 10 23 16 17 6 -6 6 -18 -2 -32z m4713 24 c9 -3
17 -10 17 -15 0 -11 6 -12 -60 12 -51 18 -52 20 -15 14 22 -3 48 -8 58 -11z
m-1193 -15 c0 -5 -9 -9 -20 -9 -11 0 -20 6 -20 14 0 9 7 12 20 9 11 -3 20 -9
20 -14z m1022 1 c10 0 18 -5 18 -11 0 -6 -7 -8 -16 -5 -9 3 -22 6 -30 6 -8 0
-14 8 -14 17 0 13 3 14 12 5 7 -7 20 -12 30 -12z m-3632 -20 c-8 -5 -22 -10
-32 -10 -9 0 -19 -6 -21 -12 -3 -7 -6 -3 -6 10 -1 19 4 22 37 22 27 0 33 -3
22 -10z m4012 -22 c14 -10 36 -18 47 -18 12 0 21 -3 21 -8 0 -4 20 -18 45 -31
48 -25 53 -32 33 -49 -10 -7 -38 7 -102 52 -49 34 -92 68 -94 75 -5 15 3 11
50 -21z m-4519 0 c-2 -5 -5 -8 -8 -8 -74 0 -79 1 -65 10 17 11 76 9 73 -2z
m1170 -42 c79 -19 91 -33 32 -38 -26 -2 -49 0 -51 4 -6 9 -89 10 -121 2 -16
-5 -23 -14 -24 -33 0 -25 0 -25 -9 -3 -10 25 -33 28 -95 11 -71 -18 -70 -17
-50 -39 14 -15 26 -19 49 -15 17 3 58 7 91 9 33 2 74 7 90 11 26 7 28 6 17 -7
-7 -9 -24 -19 -37 -22 -30 -8 -32 -22 -5 -36 14 -8 32 -8 61 0 23 6 43 9 46 6
6 -6 -3 -10 -62 -25 -37 -10 -41 -9 -58 14 -15 20 -27 25 -63 25 -24 0 -44 -3
-44 -7 0 -5 -25 -8 -55 -9 -52 0 -54 1 -49 23 4 16 1 25 -10 29 -19 7 -120
-31 -137 -52 -15 -18 -29 -18 -29 0 0 8 21 30 48 49 129 95 319 137 465 103z
m-1513 -48 c0 -19 -18 -43 -25 -36 -4 3 -2 16 5 27 12 24 20 27 20 9z m185
-111 c44 -16 46 -17 15 -14 -29 4 -92 23 -109 34 -2 2 4 12 15 24 l19 21 5
-24 c4 -17 19 -28 55 -41z m4392 34 c19 -15 30 -18 49 -11 23 9 28 6 25 -14
-1 -5 11 -22 26 -38 l28 -29 -60 35 c-65 37 -115 75 -102 76 5 0 20 -9 34 -19z
m-4527 -106 c-12 -20 -25 -34 -27 -31 -3 3 5 21 17 41 12 20 25 34 27 31 3 -3
-5 -21 -17 -41z m193 -3 c-3 -12 -9 -22 -14 -22 -12 0 -11 7 2 32 13 25 20 19
12 -10z m-544 -68 c-6 -16 -13 -24 -16 -18 -2 6 2 24 8 40 6 16 13 24 16 18 2
-6 -2 -24 -8 -40z m3022 -45 c27 -19 35 -20 74 -10 56 14 52 15 66 -10 24 -46
-54 -53 -132 -13 -43 23 -58 26 -105 20 -29 -3 -54 -4 -54 -1 0 2 12 11 28 19
39 22 89 19 123 -5z m-2541 -39 c18 -12 -49 -12 -95 0 -25 6 -21 8 25 9 30 0
62 -4 70 -9z m605 -31 c-66 -74 -79 -130 -44 -189 44 -71 88 -89 264 -106 173
-17 242 -37 422 -125 184 -90 262 -109 448 -109 122 0 144 -3 173 -20 17 -11
32 -24 32 -29 0 -5 -17 -16 -37 -24 -21 -9 -83 -34 -138 -57 -152 -63 -278
-108 -400 -140 -202 -53 -283 -64 -500 -64 -188 0 -206 1 -299 27 -125 35
-204 76 -283 151 -174 162 -197 406 -54 567 88 99 224 153 395 158 l58 1 -37
-41z m-956 -31 c-17 -31 -23 -9 -8 28 9 22 13 25 16 12 2 -9 -1 -27 -8 -40z
m2307 33 c34 -21 69 -70 79 -114 4 -16 16 -34 26 -40 29 -18 23 -27 -12 -17
-18 5 -38 19 -46 30 -22 31 -47 26 -40 -7 l5 -28 -24 28 c-29 34 -31 47 -4 40
27 -7 35 18 16 55 -17 34 -33 42 -81 42 -47 0 -85 -19 -85 -43 0 -19 -1 -19
-18 -4 -17 15 -26 15 -101 2 -55 -10 -88 -21 -97 -32 -8 -11 -13 -13 -14 -5 0
7 -14 12 -37 12 -43 0 -55 -6 -71 -35 -11 -19 -11 -19 -12 3 0 19 -5 22 -43
22 -31 0 -47 -6 -60 -21 -10 -11 -21 -18 -25 -15 -3 4 0 12 6 18 20 20 14 26
-36 33 -96 13 -78 25 28 19 118 -7 280 12 427 51 112 29 178 31 219 6z m-2146
2 c0 -5 -4 -15 -10 -23 -11 -18 -25 -7 -17 15 6 15 27 21 27 8z m134 -95 c-9
-18 -19 -28 -21 -21 -5 13 27 67 34 59 3 -2 -3 -19 -13 -38z m1956 20 c0 -16
-3 -19 -11 -11 -6 6 -8 16 -5 22 11 17 16 13 16 -11z m1618 -10 c-5 -16 -48
-24 -48 -9 0 8 17 16 43 20 5 0 7 -5 5 -11z m-120 -28 c7 -12 8 -20 2 -20 -5
0 -10 5 -10 10 0 6 -17 10 -37 10 -28 0 -34 3 -23 10 24 16 54 11 68 -10z
m462 -36 c0 -5 -61 5 -69 12 -1 1 0 7 4 13 6 11 65 -12 65 -25z m-4070 11 c7
-9 11 -18 8 -21 -8 -8 -58 18 -52 27 8 14 30 10 44 -6z m1930 1 c-18 -18 -120
-33 -120 -19 0 6 18 10 41 10 22 0 45 5 52 12 6 6 18 11 26 11 13 0 13 -2 1
-14z m1915 -6 c3 -5 -7 -8 -25 -7 -16 1 -30 5 -30 10 0 11 48 9 55 -3z m-1760
-9 c-6 -5 -23 -12 -40 -16 l-30 -6 30 15 c35 17 53 20 40 7z m1280 -26 c-22
-17 -34 -20 -42 -13 -21 17 -15 24 25 34 49 13 53 8 17 -21z m-3247 16 c26
-16 -16 -21 -45 -6 l-28 15 30 0 c17 0 36 -4 43 -9z m1387 -1 c-3 -5 -19 -10
-35 -10 -16 0 -32 5 -35 10 -4 6 10 10 35 10 25 0 39 -4 35 -10z m120 0 c-3
-5 -18 -10 -33 -9 -24 0 -25 1 -7 9 28 12 47 12 40 0z m359 -6 c12 -5 13 -10
5 -25 -14 -28 -39 -24 -39 6 0 26 7 29 34 19z m1756 -4 c0 -5 -14 -10 -31 -10
-17 0 -28 4 -24 10 3 6 17 10 31 10 13 0 24 -4 24 -10z m216 -6 c17 -14 17
-15 1 -10 -10 3 -30 6 -43 6 -13 0 -24 5 -24 10 0 16 44 12 66 -6z m-2196 0
c0 -8 -71 -36 -78 -30 -2 3 4 8 14 11 10 4 26 10 34 15 18 10 30 12 30 4z
m2400 -31 c0 -12 -2 -12 -15 1 -8 8 -15 20 -15 27 0 9 4 8 15 -1 8 -7 15 -19
15 -27z m-620 18 c-26 -15 -80 -23 -80 -12 0 10 27 17 70 19 19 1 21 -1 10 -7z
m-260 -9 c0 -4 -27 -16 -60 -28 -70 -24 -86 -8 -17 18 46 18 77 22 77 10z
m140 -13 c0 -5 -11 -9 -25 -9 -33 0 -33 15 0 16 14 1 25 -2 25 -7z m890 -29
c7 -13 8 -26 1 -38 -8 -15 -11 -14 -20 11 -16 42 -1 64 19 27z m-285 -12 c14
-6 25 -15 25 -19 0 -10 -58 10 -66 22 -7 12 10 11 41 -3z m-860 -59 c22 -5 24
-7 8 -8 -12 0 -28 -4 -36 -7 -10 -3 -17 3 -21 20 -7 30 -25 32 -67 10 -17 -8
-37 -14 -46 -12 -8 2 16 15 53 30 l69 26 5 -26 c4 -20 13 -28 35 -33z m1224
-63 c14 -9 14 -26 1 -26 -12 0 -50 76 -50 100 0 8 9 -4 19 -26 10 -23 24 -45
30 -48z m-1439 44 c11 -7 3 -14 -38 -31 -28 -12 -52 -27 -52 -33 0 -6 -16 -12
-35 -13 -19 -1 -35 1 -35 5 0 6 127 79 140 81 3 0 12 -4 20 -9z m-671 -38 c20
-16 46 -34 58 -40 27 -15 139 -16 148 -2 8 12 25 13 25 2 0 -5 -18 -17 -40
-27 -54 -25 -125 -15 -215 30 -39 19 -79 35 -88 35 -17 0 -23 21 -9 34 15 15
85 -3 121 -32z m-174 -12 c-3 -5 -10 -10 -16 -10 -5 0 -9 5 -9 10 0 6 7 10 16
10 8 0 12 -4 9 -10z m2225 -65 c0 -5 -11 4 -25 20 -13 17 -24 35 -24 40 0 6
11 -3 24 -20 14 -16 25 -34 25 -40z m-1574 -23 c-9 -9 -37 8 -31 18 5 8 11 7
21 -1 8 -6 12 -14 10 -17z m-606 8 c12 -8 11 -10 -7 -10 -12 0 -25 5 -28 10
-8 13 15 13 35 0z m404 -77 c7 -17 -9 -32 -34 -33 -20 -1 -86 -31 -138 -64
-38 -24 -41 -29 -31 -48 11 -20 10 -21 -30 -14 -56 9 -121 -23 -121 -59 0 -42
66 -60 106 -30 10 8 30 14 44 14 23 0 22 -1 -10 -18 -19 -9 -44 -23 -56 -30
-17 -11 -25 -11 -52 3 -17 9 -38 16 -47 16 -11 0 -14 6 -9 25 3 14 4 25 1 25
-7 0 -126 -45 -160 -61 -16 -7 -26 -18 -23 -26 6 -16 -6 -17 -21 -2 -8 8 -29
7 -77 -4 -83 -19 -77 -6 12 24 110 37 255 103 426 195 88 47 165 90 171 95 15
15 42 10 49 -8z m112 -19 c-30 -21 -42 -17 -15 5 13 11 26 17 29 14 3 -2 -4
-11 -14 -19z m1721 -41 c-3 -10 -5 -4 -5 12 0 17 2 24 5 18 2 -7 2 -21 0 -30z
m-1797 7 c12 -8 11 -10 -7 -10 -13 0 -23 5 -23 10 0 13 11 13 30 0z m-90 -87
c0 -5 -17 -16 -38 -26 l-37 -19 24 26 c23 25 51 35 51 19z m1976 -40 c-11 -11
-17 4 -9 23 7 18 8 18 11 1 2 -10 1 -21 -2 -24z m-2271 -143 c-6 -10 -76 -32
-83 -26 -6 7 51 35 71 36 10 0 16 -4 12 -10z m-115 -24 l25 -14 -28 -13 c-30
-14 -32 -13 -41 19 -9 26 6 28 44 8z m-376 -5 c8 -13 -13 -28 -54 -38 -42 -11
-52 -43 -20 -66 32 -22 7 -34 -102 -46 -117 -13 -108 -13 -108 -1 0 6 19 10
43 10 51 0 111 16 125 33 16 19 3 58 -18 55 -9 -2 -17 2 -16 7 0 6 30 20 66
32 78 25 77 25 84 14z m156 -33 c29 -21 31 -21 83 -5 57 18 97 22 82 9 -6 -5
-36 -16 -68 -26 -65 -20 -102 -12 -125 24 -16 26 -8 25 28 -2z m-10 -47 c0
-10 -15 -16 -70 -26 -19 -4 -44 -9 -55 -12 -11 -3 -16 -2 -12 3 5 5 34 16 65
25 72 21 72 21 72 10z m-463 -78 c-13 -12 -237 -7 -237 5 0 5 36 7 79 4 79 -4
140 10 142 33 0 5 5 0 11 -13 6 -12 8 -25 5 -29z m-617 -3 c12 -8 12 -10 -5
-10 -11 0 -27 5 -35 10 -12 8 -12 10 5 10 11 0 27 -5 35 -10z m160 -25 c14 -8
36 -14 49 -15 13 0 22 -3 18 -6 -12 -12 -107 7 -107 22 0 17 8 17 40 -1z"/>
<path d="M5967 5053 c-16 -3 -26 -10 -24 -16 4 -13 90 -22 116 -12 14 6 14 8
-3 21 -20 14 -34 15 -89 7z"/>
<path d="M6100 4985 c-18 -21 -10 -25 35 -18 35 6 36 7 20 20 -24 17 -40 17
-55 -2z"/>
<path d="M5905 4981 c-3 -5 -1 -12 4 -15 12 -8 41 3 41 15 0 12 -37 12 -45 0z"/>
<path d="M6029 4964 c-11 -14 -10 -16 11 -12 14 1 23 6 21 11 -8 16 -19 17
-32 1z"/>
<path d="M5927 4953 c-42 -7 -27 -28 22 -31 37 -3 42 -1 39 15 -3 19 -17 23
-61 16z"/>
<path d="M6097 4913 c-4 -3 -2 -12 4 -19 12 -15 73 2 63 17 -6 10 -57 12 -67
2z"/>
<path d="M6195 4910 c3 -5 13 -10 21 -10 8 0 14 5 14 10 0 6 -9 10 -21 10 -11
0 -17 -4 -14 -10z"/>
<path d="M5983 4884 c-7 -20 24 -47 45 -39 8 3 23 5 35 5 21 1 21 2 -6 25 -32
29 -65 32 -74 9z"/>
<path d="M6255 4850 c3 -5 12 -10 20 -10 8 0 17 5 20 10 4 6 -5 10 -20 10 -15
0 -24 -4 -20 -10z"/>
<path d="M6186 4843 c-13 -14 -5 -33 14 -33 11 0 20 6 20 14 0 15 -24 28 -34
19z"/>
<path d="M6040 4805 c0 -23 34 -36 55 -21 24 17 11 36 -26 36 -19 0 -29 -5
-29 -15z"/>
<path d="M6287 4793 c-4 -3 -7 -26 -7 -49 0 -44 19 -74 46 -74 18 0 18 11 -1
46 -8 16 -15 41 -15 57 0 26 -9 34 -23 20z"/>
<path d="M4996 4795 c-4 -25 -4 -49 -1 -55 7 -12 135 -14 135 -2 0 5 15 15 33
24 30 15 36 15 60 0 19 -12 30 -13 37 -6 11 11 5 14 -79 42 -25 9 -37 9 -42 1
-5 -8 -8 -8 -13 0 -5 7 -15 7 -32 1 -17 -7 -31 -7 -42 0 -13 7 -10 9 18 10 44
0 28 16 -26 24 l-42 6 -6 -45z"/>
<path d="M5305 4720 c3 -5 17 -10 31 -10 13 0 24 5 24 10 0 6 -14 10 -31 10
-17 0 -28 -4 -24 -10z"/>
<path d="M5400 4671 c0 -12 39 -25 48 -16 7 7 -17 25 -35 25 -7 0 -13 -4 -13
-9z"/>
<path d="M5261 4651 c-10 -7 -8 -12 10 -25 29 -20 69 -21 69 -1 0 27 -51 44
-79 26z"/>
<path d="M5480 4610 c0 -13 28 -25 38 -16 3 4 0 11 -8 16 -20 13 -30 12 -30 0z"/>
<path d="M5340 4590 c0 -6 16 -18 35 -27 28 -13 38 -14 48 -4 9 10 8 15 -7 27
-23 16 -76 19 -76 4z"/>
<path d="M5540 4551 c0 -5 7 -14 15 -21 13 -10 15 -9 15 9 0 12 -6 21 -15 21
-8 0 -15 -4 -15 -9z"/>
<path d="M5435 4541 c-6 -10 21 -41 35 -41 17 0 20 19 4 34 -18 18 -30 20 -39
7z"/>
<path d="M3602 4118 c-14 -14 -16 -28 -3 -28 9 0 24 30 18 36 -2 2 -9 -2 -15
-8z"/>
<path d="M6570 4116 c-50 -18 -45 -40 9 -44 54 -4 103 15 99 37 -4 21 -61 24
-108 7z"/>
<path d="M6444 4086 c-10 -8 -16 -18 -12 -22 10 -9 58 12 58 26 0 14 -23 12
-46 -4z"/>
<path d="M3470 5126 c0 -20 24 -36 39 -26 8 4 11 15 8 24 -8 20 -47 21 -47 2z"/>
</g>
</svg>
