<?xml version="1.0" standalone="no"?>
<!DOCTYPE svg PUBLIC "-//W3C//DTD SVG 20010904//EN"
 "http://www.w3.org/TR/2001/REC-SVG-20010904/DTD/svg10.dtd">
<svg version="1.0" xmlns="http://www.w3.org/2000/svg"
 width="1024.000000pt" height="1024.000000pt" viewBox="0 0 1024.000000 1024.000000"
 preserveAspectRatio="xMidYMid meet">
<metadata>
Created by potrace 1.16, written by Peter Selinger 2001-2019
</metadata>
<g transform="translate(0.000000,1024.000000) scale(0.100000,-0.100000)"
fill="currentColor" stroke="none">
<path d="M5435 8746 c-125 -41 -234 -131 -367 -303 -43 -56 -96 -117 -118
-135 -63 -54 -216 -126 -322 -152 -110 -28 -237 -84 -324 -144 -66 -44 -179
-155 -179 -174 0 -6 21 -17 47 -24 163 -41 279 -195 323 -430 9 -43 17 -80 20
-82 6 -7 35 63 35 85 0 15 2 16 10 3 5 -8 10 -31 10 -50 0 -53 -99 -145 -222
-204 -223 -107 -450 -137 -673 -89 l-29 6 27 -32 c113 -135 284 -200 492 -188
112 6 184 32 271 98 35 27 73 53 84 59 34 18 95 12 134 -15 20 -14 41 -25 46
-25 4 0 20 14 34 31 32 37 36 109 8 150 -21 32 -76 79 -92 79 -6 0 -8 5 -5 10
11 17 78 11 113 -10 38 -24 72 -88 72 -140 0 -58 -42 -133 -95 -170 -51 -35
-70 -34 -85 5 -11 28 -53 49 -81 40 -10 -3 -32 -23 -49 -44 -17 -22 -48 -46
-72 -56 -36 -14 -40 -18 -25 -26 39 -22 182 -41 262 -36 140 10 262 61 410
172 105 78 141 95 202 95 61 0 103 -40 103 -98 0 -53 -27 -133 -56 -168 l-24
-29 11 30 c12 34 15 149 5 182 -9 27 -58 47 -93 38 -16 -4 -75 -42 -133 -85
-121 -90 -181 -122 -270 -145 -157 -41 -293 -37 -408 11 -62 26 -64 26 -114
10 -28 -9 -59 -16 -70 -16 -19 0 -19 -1 3 -37 39 -66 121 -142 187 -175 111
-55 278 -50 443 13 98 38 263 147 362 239 77 72 87 78 66 37 -65 -125 -330
-348 -493 -416 -280 -116 -544 -2 -636 275 l-22 64 -59 0 c-32 0 -59 -4 -59
-8 0 -5 16 -35 36 -68 20 -32 68 -124 106 -204 38 -80 74 -156 81 -168 20 -41
69 -81 106 -88 77 -15 288 40 621 160 361 130 455 173 557 258 62 52 87 83
129 160 l31 60 -25 46 c-43 77 -32 153 33 227 20 22 25 25 20 10 -19 -58 -27
-116 -21 -148 17 -93 140 -117 224 -43 41 36 26 -8 -20 -59 -37 -40 -50 -47
-93 -53 -45 -6 -52 -11 -69 -45 -23 -49 -15 -100 24 -139 23 -23 37 -28 75
-28 145 0 278 159 330 392 l17 77 83 70 c46 39 113 108 150 153 81 101 183
302 221 438 15 52 38 118 52 145 38 76 127 210 173 260 56 60 46 70 -69 70
-225 0 -413 -122 -761 -494 -128 -137 -175 -167 -248 -158 -27 3 -54 13 -66
26 l-21 20 39 -10 c29 -8 50 -8 79 1 46 13 146 84 146 103 0 56 -191 226 -337
301 -31 15 -50 31 -48 39 3 7 -13 68 -36 137 -38 113 -42 135 -43 230 -1 142
18 197 85 248 34 25 46 39 38 47 -15 15 -158 17 -204 1z m-37 -198 c38 -78 47
-114 66 -256 20 -144 20 -163 1 -156 -19 8 -40 81 -61 214 -8 58 -20 109 -25
115 -6 5 -9 1 -9 -11 0 -31 -63 -154 -109 -212 -39 -49 -121 -112 -145 -112
-5 0 4 15 21 33 70 74 153 231 193 370 13 42 26 77 30 77 4 0 21 -28 38 -62z
m1250 -465 c-40 -42 -72 -114 -112 -252 -74 -249 -154 -400 -280 -522 -79 -78
-116 -98 -51 -28 113 120 156 208 214 434 26 102 54 187 78 234 33 65 47 81
101 118 73 50 86 54 50 16z m-186 -113 c-102 -100 -169 -195 -257 -368 -89
-175 -168 -259 -259 -276 -25 -5 -37 -14 -46 -37 -13 -30 -58 -69 -80 -69 -7
0 -4 13 9 34 27 43 26 73 -3 116 l-23 35 71 1 c81 0 137 23 179 74 14 17 56
86 93 155 74 137 164 257 247 328 55 47 133 97 151 97 6 0 -32 -41 -82 -90z
m-2024 -97 c49 -24 96 -95 110 -168 11 -56 9 -89 -3 -49 -26 82 -103 166 -197
214 l-63 32 58 -5 c32 -3 74 -14 95 -24z m617 -22 c27 -6 23 -8 -34 -20 -35
-7 -88 -23 -117 -36 -50 -22 -141 -102 -177 -155 l-17 -25 6 30 c11 49 56 126
92 153 66 50 165 71 247 53z m223 -156 c55 -30 123 -97 182 -181 32 -44 64
-67 125 -91 15 -6 10 -8 -22 -11 -58 -4 -93 16 -189 109 -107 104 -149 122
-269 117 -74 -4 -100 -9 -148 -33 -80 -40 -148 -116 -182 -205 -31 -82 -70
-120 -120 -120 -40 0 -54 16 -23 25 38 12 66 45 84 99 26 79 49 119 104 179
57 62 95 89 179 124 47 20 69 23 141 20 71 -2 94 -8 138 -32z m-53 -210 c20
-8 68 -37 108 -64 54 -38 88 -54 137 -64 l65 -14 -45 -12 c-25 -7 -79 -24
-120 -38 -208 -69 -259 -76 -320 -45 -19 9 -45 33 -58 52 -29 43 -38 47 -62
25 -18 -16 -18 -20 -4 -54 38 -91 128 -135 232 -112 28 6 95 29 149 52 81 34
112 42 178 45 l80 4 -60 -14 c-33 -8 -112 -39 -175 -70 -262 -126 -356 -115
-471 57 -22 32 -36 64 -32 70 40 70 141 156 210 182 50 18 145 19 188 0z
m-879 -474 c-24 -27 -111 -71 -170 -87 -68 -18 -158 -18 -231 2 -92 23 -89 34
6 27 102 -7 200 7 317 46 48 16 89 29 91 30 2 1 -3 -7 -13 -18z m884 -117 c0
-8 -7 -14 -15 -14 -15 0 -21 21 -9 33 10 9 24 -2 24 -19z m-75 -41 c4 -13 -2
-25 -22 -40 -33 -27 -49 -29 -56 -8 -4 9 6 24 26 40 38 30 43 30 52 8z m-120
-80 c4 -13 -3 -26 -27 -46 -36 -30 -52 -30 -56 0 -2 14 7 27 30 42 40 25 44
26 53 4z m-637 -47 c35 -18 38 -24 20 -49 -12 -15 -16 -15 -46 9 -18 14 -30
29 -27 34 3 4 -2 13 -10 20 -8 7 -15 19 -15 28 0 12 4 12 23 -5 12 -11 37 -28
55 -37z m486 -22 c11 -28 7 -35 -36 -54 -48 -21 -58 -19 -58 14 0 15 10 27 33
39 41 20 53 21 61 1z m-346 -30 c16 -5 22 -14 22 -36 0 -28 -2 -29 -32 -23
-45 10 -46 11 -40 40 5 26 12 29 50 19z m182 -28 c0 -27 -3 -30 -41 -40 -23
-5 -28 -2 -33 20 -9 34 -1 44 40 44 29 0 34 -3 34 -24z"/>
<path d="M5126 7411 c-27 -29 -37 -80 -23 -110 10 -21 20 -27 55 -29 62 -5 92
17 92 67 0 53 -31 91 -74 91 -19 0 -40 -8 -50 -19z"/>
<path d="M3558 8568 c-26 -9 -39 -28 -19 -28 23 0 102 -86 135 -149 46 -87 69
-178 91 -351 28 -231 59 -343 146 -535 l51 -113 -22 -48 c-63 -140 -17 -264
97 -264 63 0 195 36 282 76 74 34 181 107 181 123 0 4 -18 13 -41 20 -23 7
-46 14 -53 17 -6 2 -16 -6 -21 -18 -14 -33 -90 -68 -146 -68 -95 0 -161 40
-204 123 -28 53 -28 55 -10 73 10 10 28 42 41 71 25 57 46 73 94 73 71 0 153
-59 202 -148 47 -83 77 -86 57 -6 -18 73 -59 151 -107 205 -50 56 -166 119
-235 126 -39 5 -46 2 -66 -23 -25 -32 -25 -81 -1 -166 8 -26 10 -51 6 -55 -13
-13 -45 36 -62 94 -22 74 -6 141 45 192 20 20 53 60 74 88 37 50 38 53 23 81
-9 17 -29 72 -45 124 -17 51 -42 109 -56 128 -27 37 -137 152 -141 147 -1 -1
2 -22 6 -47 5 -25 9 -81 8 -125 l0 -80 -15 65 c-20 93 -62 219 -84 258 -10 18
-19 35 -19 37 0 13 91 -31 145 -70 115 -81 170 -165 220 -330 15 -50 29 -94
32 -98 3 -4 21 7 41 25 21 19 67 55 104 81 l68 48 -59 88 c-155 230 -400 373
-635 370 -45 0 -93 -5 -108 -11z"/>
<path d="M7665 8534 c-88 -18 -232 -88 -307 -148 -164 -131 -258 -332 -258
-551 0 -600 691 -929 1178 -560 73 55 159 161 202 248 102 209 91 476 -27 671
-79 129 -224 252 -363 306 -124 49 -289 62 -425 34z m333 -161 l57 -17 -88
-13 c-243 -36 -459 -212 -528 -432 -53 -170 -8 -414 99 -533 19 -21 30 -38 26
-38 -24 0 -120 80 -161 134 -249 330 -100 798 287 900 78 21 238 20 308 -1z
m-273 -200 c-46 -24 -95 -74 -116 -118 -11 -22 -16 -29 -13 -16 4 15 1 27 -7
32 -29 18 96 119 146 118 16 0 14 -3 -10 -16z"/>
<path d="M3023 8350 c-72 -36 -178 -143 -207 -208 -16 -36 -23 -42 -40 -38
-72 21 -184 28 -266 17 -256 -33 -460 -173 -572 -394 -52 -104 -91 -309 -55
-294 6 3 20 8 29 12 18 7 60 -26 70 -56 6 -15 4 -16 77 36 l42 30 -7 55 c-4
30 -7 78 -7 107 0 122 118 268 280 346 72 34 95 40 172 45 49 2 115 1 147 -3
l59 -8 -89 -13 c-229 -32 -420 -204 -501 -451 -9 -29 -21 -55 -26 -58 -14 -9
-11 -25 6 -25 8 0 22 -11 31 -25 15 -23 21 -25 59 -20 35 6 46 3 73 -20 43
-36 49 -76 22 -166 -31 -103 -36 -181 -16 -258 9 -36 21 -70 26 -76 6 -7 37
-15 70 -18 55 -6 90 -20 162 -65 26 -16 29 -16 60 3 50 30 194 28 265 -4 l53
-23 55 37 c148 102 258 259 296 422 69 301 -55 606 -313 772 l-68 44 23 41
c29 54 109 134 152 152 46 19 115 18 145 -2 14 -10 41 -32 61 -51 66 -62 158
-55 223 18 28 30 36 48 36 77 0 55 -19 69 -42 32 -40 -66 -113 -64 -226 6 -65
41 -86 49 -137 52 -51 3 -69 -1 -122 -28z"/>
<path d="M4196 7456 c-31 -66 21 -120 79 -82 34 23 34 68 -1 95 -38 30 -59 26
-78 -13z"/>
<path d="M4067 7412 c-15 -16 -13 -21 25 -66 48 -55 89 -76 150 -76 44 1 128
36 136 58 7 23 -42 31 -100 15 -52 -15 -57 -14 -102 5 -28 13 -53 33 -64 51
-20 36 -24 37 -45 13z"/>
<path d="M2070 7390 c0 -5 -14 -31 -30 -57 -69 -108 -98 -241 -79 -362 14 -95
59 -213 110 -290 48 -72 50 -91 9 -91 -23 0 -35 9 -58 43 -112 162 -157 376
-114 532 11 39 30 93 42 122 23 51 23 53 5 73 -26 29 -39 25 -69 -20 -128
-193 -99 -515 66 -747 31 -43 30 -63 -2 -63 -42 0 -143 174 -174 301 -36 147
-14 365 49 489 31 60 29 74 -5 57 -36 -18 -79 -89 -112 -181 -24 -71 -28 -95
-28 -202 0 -187 38 -308 143 -450 34 -46 85 -92 204 -180 237 -178 285 -196
408 -158 36 11 70 13 120 9 146 -13 103 -40 -80 -51 -63 -4 -115 -10 -115 -14
0 -22 116 -170 133 -170 7 1 28 24 48 53 34 50 37 52 77 50 39 -2 44 1 72 42
29 43 69 65 117 65 13 0 48 18 77 39 48 36 56 38 72 26 11 -8 36 -19 57 -25
42 -12 106 -64 94 -76 -4 -4 -49 0 -99 9 -51 9 -93 15 -94 14 -1 -1 6 -38 17
-82 24 -104 24 -109 -7 -55 -64 113 -137 151 -170 88 -22 -42 -11 -75 69 -210
62 -103 63 -107 34 -90 -45 25 -103 85 -138 142 -27 44 -35 50 -64 50 -43 0
-63 -21 -95 -101 -13 -34 -38 -77 -56 -96 -36 -38 -63 -45 -40 -10 8 12 24 46
36 76 24 63 18 73 -45 69 -38 -3 -40 -5 -52 -48 -10 -40 -18 -240 -9 -240 2 0
34 13 73 29 63 26 106 50 172 98 23 17 24 16 102 -66 43 -45 79 -87 79 -93 0
-32 44 -77 104 -106 49 -24 66 -38 74 -62 13 -37 9 -37 -51 -2 -48 27 -101 73
-238 201 -63 58 -69 62 -88 49 -20 -14 -20 -16 24 -104 67 -135 108 -190 255
-342 159 -163 221 -201 338 -210 173 -12 420 114 610 310 39 42 72 82 72 89 0
8 -7 48 -16 89 -18 80 -24 295 -11 343 l8 29 -28 -19 c-15 -11 -43 -25 -60
-31 -56 -19 -193 -25 -272 -13 -65 10 -76 10 -92 -5 -18 -16 -27 -40 -11 -31
4 3 4 -38 1 -91 -4 -71 -12 -108 -28 -139 -12 -24 -22 -43 -24 -43 -1 0 -2 35
-3 78 -1 93 -23 182 -67 271 l-32 66 -55 -3 c-30 -1 -73 -5 -96 -8 l-41 -5 -2
-67 c-2 -71 -5 -87 -28 -170 -11 -41 -18 -51 -27 -43 -7 6 -16 8 -19 4 -9 -8
-9 209 -1 271 6 38 10 46 27 46 11 0 61 5 110 11 73 10 88 15 84 28 -3 14 4
15 50 13 86 -6 91 0 41 60 -80 96 -170 187 -219 220 -45 31 -49 36 -49 75 0
72 -28 192 -57 245 -59 109 -194 161 -329 127 -59 -15 -63 -26 -14 -39 42 -11
51 -24 24 -34 -50 -19 -109 1 -159 54 -36 38 -95 70 -130 70 l-25 0 25 -50
c29 -57 34 -120 10 -120 -38 0 -114 123 -149 239 -22 76 -21 217 4 311 24 91
25 134 4 154 -40 40 -83 -3 -125 -124 -34 -98 -32 -272 4 -393 15 -48 41 -115
57 -147 l30 -60 -34 0 c-33 0 -36 3 -66 67 -94 198 -99 418 -15 601 27 57 32
78 24 88 -13 16 -69 19 -69 4z m243 -1020 c31 -11 92 -25 135 -31 97 -14 118
-24 79 -38 -74 -29 -192 -2 -247 54 -19 19 -32 35 -29 35 3 0 30 -9 62 -20z"/>
<path d="M4276 6621 c10 -18 45 -57 77 -87 117 -109 281 -124 460 -42 74 34
84 47 18 23 -24 -8 -82 -20 -130 -26 -163 -21 -282 14 -389 115 -51 47 -54 48
-36 17z"/>
<path d="M5537 6575 c-131 -97 -244 -144 -637 -260 -356 -106 -431 -125 -493
-125 -104 0 -153 46 -240 230 -33 69 -64 129 -71 133 -23 17 -161 -2 -256 -35
-82 -28 -108 -32 -195 -32 -86 0 -113 5 -192 32 -51 17 -119 45 -152 62 -33
16 -63 30 -67 30 -4 0 -4 -27 -1 -60 7 -86 54 -178 129 -257 97 -100 99 -101
221 -58 56 20 118 43 138 50 55 21 272 75 277 70 8 -8 3 -10 -128 -55 -105
-35 -377 -141 -403 -157 -4 -2 -1 -11 7 -19 11 -11 12 -22 4 -50 -5 -20 -8
-37 -6 -39 2 -2 48 27 104 64 137 92 308 161 398 161 41 0 25 -12 -59 -45 -38
-15 -117 -51 -175 -80 -58 -29 -143 -67 -190 -85 -109 -43 -121 -56 -81 -92
44 -40 101 -53 231 -53 97 0 122 4 163 22 26 12 47 24 47 27 0 3 9 29 20 57
l21 52 -24 -16 c-41 -27 -128 -47 -203 -47 -40 0 -75 4 -78 9 -3 4 60 22 140
40 80 17 172 44 205 60 32 15 59 27 59 25 0 -1 -11 -25 -25 -52 -14 -27 -33
-78 -42 -113 -33 -117 -19 -459 17 -459 4 0 20 24 35 53 48 93 63 111 146 182
86 74 201 206 245 281 14 24 27 44 28 44 1 0 0 -65 -2 -144 -5 -152 4 -228 39
-338 35 -112 36 -113 108 -11 35 48 76 113 91 144 36 70 116 270 125 309 11
52 21 32 14 -27 -4 -32 -8 -83 -8 -115 -1 -33 -6 -58 -12 -60 -20 -7 9 -102
51 -166 34 -53 123 -132 148 -132 35 0 87 155 101 301 6 57 13 148 17 202 l6
97 48 -80 c79 -132 160 -237 255 -334 91 -93 202 -176 236 -176 48 0 34 277
-26 520 -5 20 49 -64 83 -130 13 -24 136 -80 214 -97 74 -16 280 -24 293 -11
9 9 -63 133 -124 213 -25 33 -85 104 -133 157 -49 53 -88 99 -88 101 0 3 17
-4 38 -15 47 -25 114 -19 227 21 44 16 89 32 100 36 11 4 1 -11 -25 -35 -46
-43 -132 -92 -185 -104 l-30 -8 27 -23 c22 -19 35 -22 70 -18 107 13 214 97
272 214 32 63 64 175 53 185 -2 2 -42 -13 -88 -35 -106 -49 -204 -71 -316 -71
-155 0 -295 48 -390 134 l-49 44 -57 -43z m-1527 -140 c-20 -24 -107 -45 -184
-44 -74 0 -143 17 -79 18 37 1 148 24 213 45 49 15 71 7 50 -19z m-523 -19
c67 -21 113 -48 113 -68 0 -12 -98 -10 -123 3 -29 15 -76 59 -89 83 -9 16 -8
18 8 11 11 -4 51 -18 91 -29z m2401 -329 c140 -99 196 -147 175 -147 -17 0
-249 77 -270 89 -22 13 28 5 95 -15 23 -6 42 -11 42 -9 0 1 -33 22 -72 45
-169 100 -192 118 -234 184 l-18 29 72 -39 c40 -21 134 -83 210 -137z m-1692
-6 c-8 -33 -11 -61 -8 -61 4 0 23 19 44 43 53 60 48 27 -10 -69 -55 -92 -162
-241 -162 -227 0 53 132 395 146 380 3 -2 -2 -32 -10 -66z m1199 59 c9 -15 27
-12 19 3 -4 6 2 4 13 -6 33 -29 80 -125 107 -221 14 -48 26 -93 26 -99 0 -16
-57 41 -93 93 -33 48 -97 193 -97 223 0 19 15 23 25 7z m-429 -111 c10 -46 17
-135 19 -238 l2 -165 -23 30 c-32 39 -83 162 -90 218 -4 24 -3 57 1 73 l7 28
19 -37 c33 -65 39 -56 39 63 0 62 2 110 5 107 3 -3 13 -38 21 -79z m-366 -59
c5 0 11 9 15 19 3 11 12 24 19 30 10 9 13 6 10 -11 -11 -71 -37 -212 -51 -273
l-16 -70 -13 50 c-17 63 -18 203 -2 281 l12 59 9 -42 c4 -24 12 -43 17 -43z"/>
<path d="M7550 6306 c-87 -19 -130 -48 -130 -86 0 -19 67 -19 116 0 66 24 154
37 154 21 0 -13 -78 -71 -95 -71 -31 0 -36 -27 -19 -99 17 -69 18 -70 43 -63
34 9 137 9 180 -1 l34 -7 -6 45 c-4 25 -18 66 -31 92 -30 55 -26 68 14 48 41
-21 55 -46 85 -155 44 -157 93 -226 133 -186 14 14 13 26 -12 136 -16 67 -26
124 -23 126 3 3 15 -25 27 -63 12 -37 29 -78 36 -90 15 -23 72 -58 81 -49 3 2
-5 52 -17 111 -32 149 -67 195 -151 195 -25 0 -42 7 -60 26 -32 35 -79 54
-134 54 -26 0 -54 4 -63 9 -32 16 -107 20 -162 7z"/>
<path d="M7210 6241 c-187 -57 -378 -335 -440 -640 -11 -54 -20 -128 -20 -163
0 -65 28 -187 56 -241 l16 -30 19 29 c32 49 33 101 4 173 -18 44 -25 77 -23
110 l3 46 50 -84 c77 -130 138 -179 152 -123 10 42 -14 157 -47 222 -40 80
-40 126 3 181 18 24 44 46 61 50 40 11 61 33 85 89 l21 49 -25 37 c-38 56 -32
70 14 34 85 -69 228 -38 207 45 -3 13 -15 27 -26 30 -24 7 -27 43 -5 52 42 15
97 -85 132 -241 13 -61 29 -120 35 -131 19 -38 62 -75 85 -75 29 0 29 10 3
148 -50 261 -69 309 -136 348 -24 14 -44 32 -44 40 0 33 -38 54 -97 53 -32 0
-69 -4 -83 -8z"/>
<path d="M6080 6120 c0 -9 79 -103 106 -127 29 -26 90 -30 139 -9 l29 12 -49
34 c-28 18 -68 47 -89 64 -31 24 -49 30 -87 31 -27 0 -49 -2 -49 -5z"/>
<path d="M7614 5946 c-5 -14 5 -95 30 -225 l12 -65 46 -12 c25 -6 65 -22 88
-35 l42 -24 -106 -3 c-60 -1 -114 2 -125 8 -13 7 -22 7 -26 0 -14 -23 -61 -10
-97 28 -45 47 -62 80 -92 184 -20 69 -27 82 -43 79 -10 -2 -46 -3 -80 -3 -35
0 -63 -4 -63 -9 0 -27 -50 -108 -101 -165 -69 -75 -70 -85 -33 -193 30 -86 38
-210 16 -233 -11 -11 -12 -9 -6 7 6 18 6 19 -10 4 -16 -15 -16 -20 4 -79 16
-48 18 -65 9 -71 -8 -5 -18 4 -28 24 -9 18 -32 40 -51 50 l-35 17 -3 -31 c-8
-71 47 -230 114 -330 84 -128 211 -225 367 -283 78 -29 89 -30 242 -30 140 -1
169 2 229 21 259 86 446 293 497 551 17 90 7 269 -21 352 -49 146 -151 282
-276 368 l-33 22 -15 -29 c-52 -99 -137 -75 -184 52 -19 50 -21 52 -58 52 -37
0 -39 -1 -37 -30 3 -30 3 -30 -11 5 l-13 35 -72 3 c-55 2 -73 0 -77 -12z
m-235 -312 c13 -31 44 -76 70 -103 38 -39 58 -51 100 -60 28 -6 63 -11 76 -11
50 0 32 -18 -24 -25 -82 -9 -115 0 -152 43 l-30 37 -50 -55 c-150 -165 -170
-405 -50 -599 17 -28 26 -51 20 -51 -5 0 -32 21 -60 47 -59 55 -121 175 -139
269 -11 56 -10 68 10 128 20 57 22 80 17 158 -6 88 -5 92 23 133 33 49 136
145 154 145 7 0 23 -25 35 -56z"/>
<path d="M5196 5871 c-4 -32 -16 -92 -27 -133 -21 -77 -100 -248 -124 -268
-19 -16 -95 29 -156 93 -47 48 -109 151 -109 181 0 28 -14 17 -52 -42 -20 -31
-64 -96 -97 -145 -33 -48 -67 -109 -74 -135 l-14 -47 -31 55 c-45 79 -91 211
-103 299 -6 42 -14 93 -18 115 l-6 38 -33 -46 c-18 -25 -71 -80 -118 -123
-156 -143 -234 -268 -234 -374 0 -106 95 -242 189 -270 86 -25 156 -23 328 11
93 18 170 35 173 37 2 2 -13 20 -35 39 l-40 35 34 -16 c62 -31 126 -45 248
-56 134 -12 195 -4 353 48 87 28 147 26 169 -6 12 -19 23 -21 142 -21 71 0
129 3 129 6 0 4 -9 21 -20 39 -28 46 -50 148 -50 241 0 77 -1 81 -26 93 -84
38 -249 200 -328 321 -27 41 -52 79 -56 83 -4 5 -10 -19 -14 -52z m-762 -750
c-2 -2 -21 8 -43 22 -44 29 -84 77 -101 121 -8 22 10 8 68 -55 44 -46 78 -86
76 -88z"/>
<path d="M5738 5663 l3 -218 36 -53 c51 -75 169 -181 260 -232 43 -24 98 -61
123 -81 79 -65 105 -74 205 -74 67 1 99 5 125 19 46 24 80 56 80 75 0 9 18 48
40 86 l40 70 0 -65 c0 -59 10 -146 26 -223 6 -27 7 -26 34 30 16 32 37 71 47
86 18 27 18 29 -6 70 -14 23 -37 80 -52 127 -16 47 -29 81 -30 75 -5 -33 -17
66 -18 152 0 56 -5 104 -9 107 -5 3 -32 -2 -60 -10 -28 -9 -62 -14 -74 -12
-18 2 -4 13 61 48 46 25 100 59 120 76 38 33 100 134 82 134 -5 0 -12 -4 -15
-9 -3 -4 -38 -18 -78 -31 -92 -29 -111 -38 -235 -121 -57 -37 -103 -64 -103
-60 0 16 112 131 155 158 25 15 45 30 45 33 0 3 -14 11 -31 17 -29 11 -37 9
-102 -29 -38 -22 -87 -56 -108 -75 -75 -68 -114 -195 -107 -351 2 -44 0 -78
-5 -75 -18 11 -48 88 -59 152 -7 39 -15 71 -19 71 -3 0 -21 -29 -39 -64 -29
-57 -32 -72 -28 -125 5 -69 -4 -72 -21 -7 -34 138 5 229 156 358 l85 73 -154
6 c-167 7 -228 22 -321 79 -27 17 -49 30 -50 30 -1 0 -1 -98 1 -217z m818
-212 c-9 -17 -21 -77 -27 -133 -16 -157 -26 -220 -41 -253 -12 -27 -13 -18
-16 104 -2 124 6 195 33 263 6 16 1 17 -56 13 l-64 -5 34 15 c18 9 56 20 84
26 28 5 53 12 56 15 13 13 11 -17 -3 -45z m74 -112 c0 -6 -11 -24 -25 -41
l-25 -30 0 31 c0 18 7 34 18 40 22 14 32 13 32 0z"/>
<path d="M5240 5100 c-47 -10 -107 -23 -135 -29 -43 -9 -32 -10 70 -7 66 2
136 9 155 16 19 6 42 14 50 16 13 5 13 6 0 14 -20 13 -40 11 -140 -10z"/>
<path d="M5389 5039 c-48 -26 -67 -31 -130 -31 -66 -1 -77 -4 -110 -30 -65
-52 -162 -78 -317 -84 -78 -4 -154 -12 -177 -20 -46 -16 -221 -44 -280 -44
-57 0 -110 17 -144 45 -27 23 -37 25 -132 25 -177 0 -370 -18 -472 -44 -86
-22 -276 -100 -266 -110 2 -2 58 -9 124 -16 72 -7 181 -28 275 -52 139 -36
195 -48 309 -65 31 -4 32 -5 15 -17 -11 -8 -35 -17 -54 -20 -19 -4 -42 -10
-51 -12 -16 -4 -46 -113 -64 -229 -4 -22 -9 -49 -12 -59 -5 -17 -1 -19 48 -13
68 7 199 51 265 88 48 27 110 87 161 154 l23 30 -11 -30 c-59 -169 -61 -458
-4 -692 24 -99 80 -243 95 -243 4 0 11 21 15 48 24 168 164 462 312 655 53 68
67 65 77 -16 5 -33 24 -83 52 -136 54 -99 134 -221 145 -221 18 0 56 198 61
317 2 40 6 73 10 73 16 0 318 -259 431 -369 89 -87 120 -112 127 -102 21 35
31 207 21 356 -6 82 -14 151 -19 153 -14 4 -175 113 -205 138 -16 13 -24 24
-18 24 41 0 362 -160 542 -270 72 -45 133 -79 135 -77 8 7 -48 161 -83 232
-49 97 -111 182 -183 248 l-61 57 228 0 c134 0 281 -6 358 -15 153 -17 175
-18 175 -6 0 17 -112 121 -178 164 -146 96 -296 160 -487 209 -107 27 -139 30
-305 34 l-185 3 -56 -30z m-1129 -203 c0 -2 -24 -11 -52 -21 -55 -17 -98 -49
-98 -71 0 -7 9 -18 21 -24 33 -18 19 -19 -56 -4 -38 7 -126 16 -195 19 -117 6
-180 18 -180 34 0 4 116 20 258 35 141 15 259 30 261 32 5 5 41 5 41 0z m1828
-21 c170 -26 163 -34 -33 -34 -200 -1 -255 5 -255 25 0 8 -10 14 -22 15 -13 0
-32 5 -43 10 -31 14 233 2 353 -16z m-435 -101 c18 -9 43 -26 57 -36 29 -23
181 -201 175 -206 -5 -6 -182 56 -233 82 -52 26 -112 72 -112 86 0 12 65 19
104 10 l37 -8 -36 39 c-49 54 -47 61 8 33z m-1317 -46 c4 -6 -4 -19 -20 -31
-15 -10 -62 -63 -105 -116 -80 -98 -171 -192 -171 -177 0 5 21 50 48 100 76
147 217 274 248 224z m239 -251 l7 -67 37 30 c28 24 37 27 39 15 2 -8 7 -15
11 -15 4 0 16 -6 26 -14 18 -13 15 -18 -49 -100 -68 -88 -109 -165 -121 -230
-10 -49 -21 -45 -29 10 -15 113 -2 257 36 398 24 90 31 85 43 -27z m890 -20
c18 -40 51 -124 73 -187 22 -63 43 -123 47 -133 9 -21 -245 235 -281 284 -14
19 -20 35 -14 37 15 5 12 23 -7 45 -18 20 -18 20 15 1 18 -10 56 -39 84 -63
38 -33 49 -39 44 -24 -7 21 -26 130 -26 148 0 17 31 -34 65 -108z m-426 -72
c12 -117 14 -181 6 -174 -11 12 -75 240 -74 266 0 24 2 25 8 8 8 -19 8 -19 22
2 7 13 16 19 20 15 4 -4 12 -56 18 -117z"/>
<path d="M4612 5043 c-58 -14 -62 -16 -56 -39 6 -23 5 -24 -21 -14 -19 7 -44
7 -84 -1 -31 -6 -94 -9 -139 -7 -82 3 -83 3 -60 -16 20 -16 32 -17 88 -10 70
9 135 10 440 4 187 -3 198 -2 270 22 42 14 68 28 60 31 -8 2 -65 14 -126 26
-129 25 -279 26 -372 4z"/>
<path d="M4350 4913 c-19 -3 -39 -9 -44 -14 -12 -11 108 -12 169 -2 36 6 38 7
15 14 -27 8 -84 8 -140 2z"/>
<path d="M3221 4653 l-62 -48 78 -7 c43 -4 100 -12 126 -18 26 -5 62 -10 79
-10 20 0 28 -4 25 -12 -51 -130 -50 -128 -127 -182 -141 -99 -263 -253 -305
-385 -26 -80 -17 -195 23 -289 49 -117 135 -236 266 -368 132 -133 217 -193
402 -288 118 -60 141 -80 256 -223 67 -85 126 -122 201 -130 98 -10 229 35
281 97 52 63 32 147 -71 293 l-58 82 -6 113 c-6 103 -10 119 -42 186 -38 76
-120 173 -209 248 l-52 43 -170 -3 c-229 -5 -323 18 -425 102 -63 52 -94 95
-38 52 83 -64 287 -104 462 -91 177 12 423 50 440 67 3 3 1 36 -5 74 -15 107
-12 213 10 320 11 55 23 107 26 117 3 10 -17 -5 -44 -32 -59 -59 -160 -110
-292 -146 -59 -16 -102 -34 -112 -46 -16 -19 -19 -19 -24 -4 -9 22 4 174 22
258 8 38 14 88 14 113 0 43 -1 44 -27 38 l-28 -6 24 17 24 18 -25 13 c-51 27
-407 84 -522 84 -48 0 -59 -5 -115 -47z m367 -1261 c43 -43 120 -117 172 -165
l95 -88 -55 27 c-78 38 -182 107 -237 156 -46 43 -103 114 -103 129 0 7 19 14
43 18 5 0 43 -34 85 -77z m687 -407 c-16 -13 -55 -34 -85 -46 -67 -25 -122
-22 -177 12 l-38 24 115 7 c63 4 129 11 145 17 17 5 39 10 50 10 17 1 16 -3
-10 -24z"/>
<path d="M6007 4573 c119 -125 213 -331 239 -525 l7 -51 -66 52 c-62 49 -234
154 -339 207 l-48 24 -4 -22 c-3 -13 -7 -102 -9 -198 -3 -151 -7 -182 -25
-228 -12 -29 -22 -57 -22 -62 0 -5 46 -43 103 -86 l102 -77 5 112 5 112 90
-63 90 -63 170 0 c162 1 220 8 312 42 43 16 -23 -39 -83 -68 -73 -36 -183 -48
-277 -30 l-59 11 -69 -56 c-154 -125 -225 -309 -218 -562 3 -100 7 -122 26
-152 12 -19 31 -51 42 -71 24 -43 76 -78 141 -95 l45 -12 -28 -11 c-66 -26
-133 -5 -193 61 -20 22 -40 36 -44 32 -26 -27 -67 -134 -98 -257 l-35 -141 19
-36 c45 -84 186 -94 331 -23 86 43 144 113 218 266 70 146 103 193 235 331
100 105 160 184 237 311 29 50 85 130 123 179 82 106 120 192 127 292 7 91
-11 148 -79 246 -63 90 -286 314 -391 392 -43 32 -76 61 -73 63 2 3 46 22 97
43 52 21 95 43 97 49 2 5 -12 26 -30 46 -31 33 -39 36 -138 51 -59 9 -210 18
-348 21 l-242 6 57 -60z m272 -1069 c3 -3 -5 -17 -17 -32 -54 -65 -95 -138
-127 -221 -18 -48 -47 -115 -64 -147 l-30 -59 -1 86 c0 146 46 257 146 349 35
32 50 40 67 34 12 -3 24 -8 26 -10z"/>
<path d="M4801 4141 c-22 -35 -41 -74 -41 -86 0 -30 46 -97 125 -185 84 -92
152 -194 217 -328 28 -56 52 -101 53 -100 2 2 22 48 45 103 47 111 142 303
188 381 l30 51 -100 92 c-55 50 -104 91 -109 91 -5 0 -11 -10 -13 -22 -2 -13
-12 -63 -21 -112 -18 -99 -64 -228 -80 -223 -19 6 -153 179 -185 238 -17 33
-39 83 -49 112 l-18 52 -42 -64z"/>
<path d="M7550 4023 c-57 -20 -157 -119 -191 -188 -66 -137 1 -355 137 -443
86 -55 93 -62 100 -97 12 -67 -38 -134 -158 -212 -170 -110 -414 -178 -687
-190 -130 -6 -135 -7 -167 -35 -19 -17 -54 -57 -80 -91 l-46 -62 48 -8 c141
-22 521 29 739 99 182 59 400 189 473 282 101 128 98 286 -5 371 -35 29 -35
31 -23 61 10 24 10 40 2 69 -18 57 -47 79 -112 83 -55 3 -55 3 -58 37 -5 47
25 107 63 131 20 13 50 20 79 20 86 0 137 -44 172 -147 13 -38 29 -69 37 -71
8 -2 41 6 73 17 32 11 60 18 62 16 2 -2 -4 -18 -13 -36 -29 -54 -22 -93 31
-177 26 -42 65 -108 85 -146 33 -62 38 -67 48 -49 18 35 33 161 29 254 l-3 89
30 0 c50 -1 114 -19 191 -55 41 -18 74 -31 74 -29 0 3 -12 30 -27 60 -60 123
-205 256 -294 270 -22 4 -41 10 -44 14 -8 12 57 53 112 70 64 20 59 28 -34 59
-72 24 -159 27 -207 7 -30 -13 -69 -52 -79 -79 -2 -7 -25 8 -56 36 -28 27 -70
57 -94 67 -52 24 -144 25 -207 3z"/>
<path d="M4702 4007 c-14 -17 -92 -175 -92 -185 0 -10 228 -296 238 -299 7 -2
92 194 92 211 0 4 -34 45 -76 89 -42 45 -90 106 -106 134 -34 61 -42 68 -56
50z"/>
<path d="M5437 3893 c-3 -5 -49 -89 -102 -188 l-97 -180 6 -70 c22 -256 158
-467 371 -576 50 -26 114 -55 143 -65 l54 -18 18 24 c27 36 40 123 24 165 -4
9 -34 30 -68 47 -124 63 -213 187 -257 359 -18 68 -22 120 -25 274 l-4 189
-29 23 c-16 13 -32 20 -34 16z"/>
<path d="M4618 2882 c-16 -2 -28 -5 -28 -8 0 -3 16 -19 36 -36 19 -17 42 -44
50 -60 l15 -29 -38 19 c-71 36 -81 36 -109 3 -39 -46 -139 -109 -211 -131 -78
-24 -148 -25 -228 -5 l-60 16 -28 -33 c-78 -93 -287 -465 -270 -482 3 -3 20
-6 37 -6 68 0 176 -75 216 -149 14 -28 11 -27 -49 13 -85 58 -154 79 -241 74
-66 -4 -88 -11 -184 -59 -101 -50 -114 -53 -180 -53 -46 0 -82 6 -102 17 -70
37 -138 148 -170 280 -10 37 -20 64 -24 60 -15 -16 -61 -159 -82 -251 -23
-108 -34 -89 97 -176 141 -94 284 -157 445 -197 133 -33 367 -33 485 -1 125
34 200 77 285 162 83 82 122 149 205 347 53 128 69 149 79 102 8 -40 66 -99
99 -99 66 0 194 133 236 245 59 157 -14 373 -142 419 -48 17 -99 24 -139 18z"/>
<path d="M5597 2395 c-84 -31 -168 -112 -197 -190 -19 -51 -14 -156 10 -212
40 -94 114 -141 319 -202 151 -45 146 -47 147 48 1 46 9 100 20 132 l18 54 8
-43 c12 -71 48 -131 132 -219 128 -136 268 -217 459 -265 122 -31 287 -22 422
22 223 73 310 139 517 397 84 103 87 114 52 165 -35 50 -144 172 -178 199
l-25 19 6 -52 c8 -78 -13 -195 -46 -253 -33 -59 -107 -118 -168 -136 -31 -8
-85 -10 -186 -5 -160 8 -203 1 -308 -44 -37 -17 -70 -30 -74 -30 -11 0 41 69
69 91 33 26 106 49 155 49 l35 0 -49 51 c-128 130 -328 269 -451 311 l-82 28
-88 -42 c-77 -37 -98 -43 -155 -43 -84 0 -123 25 -177 115 l-39 65 -54 2 c-30
1 -71 -4 -92 -12z m93 -38 c0 -2 -17 -22 -38 -44 -39 -40 -92 -139 -92 -170 0
-16 -1 -16 -16 -1 -9 9 -19 38 -21 65 -5 42 -1 53 22 81 30 36 56 52 100 63
38 9 45 10 45 6z"/>
</g>
</svg>
