<?xml version="1.0" standalone="no"?>
<!DOCTYPE svg PUBLIC "-//W3C//DTD SVG 20010904//EN"
 "http://www.w3.org/TR/2001/REC-SVG-20010904/DTD/svg10.dtd">
<svg version="1.0" xmlns="http://www.w3.org/2000/svg"
 width="1024.000000pt" height="1024.000000pt" viewBox="0 0 1024.000000 1024.000000"
 preserveAspectRatio="xMidYMid meet">
<metadata>
Created by potrace 1.16, written by Peter Selinger 2001-2019
</metadata>
<g transform="translate(0.000000,1024.000000) scale(0.100000,-0.100000)"
fill="currentColor" stroke="none">
<path d="M6392 8889 c-158 -15 -296 -56 -414 -122 -103 -58 -103 -58 6 -111
166 -81 260 -191 287 -341 21 -116 -3 -196 -71 -234 -81 -45 -191 -15 -232 64
-8 15 -4 14 18 -7 33 -30 73 -48 110 -48 36 0 98 34 113 63 15 28 8 62 -10 51
-7 -4 -2 7 11 24 28 38 23 78 -22 170 -68 139 -213 228 -505 311 -95 27 -197
63 -227 80 -31 17 -81 45 -112 62 -44 25 -67 32 -111 31 -30 0 -57 -3 -60 -6
-8 -8 14 -39 110 -153 201 -240 255 -354 272 -578 5 -72 5 -78 -9 -61 -14 18
-27 67 -41 163 -5 32 -12 44 -28 48 -12 3 -44 12 -72 20 -27 8 -66 17 -86 20
-56 8 -124 57 -145 104 -11 22 -23 41 -27 41 -16 0 -37 -71 -37 -124 0 -32 9
-77 20 -106 12 -31 16 -50 9 -50 -7 0 -42 32 -78 70 -37 39 -72 70 -79 70 -8
0 -10 -14 -7 -42 2 -24 7 -77 9 -119 6 -86 23 -134 66 -183 58 -65 170 -85
226 -39 99 80 95 78 153 76 31 -1 81 -10 111 -20 49 -16 57 -24 89 -78 20 -33
56 -81 81 -106 l46 -46 -51 -23 -50 -24 -155 23 c-85 13 -209 32 -275 42 -388
59 -799 -33 -1125 -253 -83 -56 -177 -135 -169 -142 5 -5 245 12 334 24 46 6
71 6 73 -1 3 -6 8 -6 15 0 7 5 66 15 132 21 66 6 123 14 127 16 5 3 8 1 8 -3
0 -5 -12 -16 -27 -25 -16 -9 -57 -40 -92 -68 -48 -39 -66 -48 -72 -38 -6 8 -9
9 -9 2 0 -7 -36 -47 -81 -90 -44 -43 -96 -102 -115 -131 -33 -50 -90 -101
-101 -90 -11 12 74 152 126 206 59 61 167 138 178 128 3 -4 13 2 21 14 8 11
11 23 8 27 -4 3 -59 -2 -124 -11 -64 -9 -158 -17 -208 -17 -86 0 -98 -3 -185
-42 -112 -49 -141 -67 -262 -159 -51 -39 -135 -91 -187 -115 -52 -25 -111 -53
-130 -62 -52 -26 -96 -91 -129 -195 -46 -145 -56 -224 -56 -427 1 -195 13
-304 61 -512 31 -136 31 -178 2 -205 -38 -35 -79 -50 -183 -68 -123 -22 -203
-51 -288 -105 -130 -81 -243 -234 -254 -343 -5 -52 -5 -52 31 -69 40 -19 40
-20 27 -63 -12 -42 2 -72 43 -92 34 -16 35 -18 29 -58 -6 -51 9 -83 45 -96 15
-5 35 -22 44 -39 30 -53 130 -50 197 5 16 14 41 45 55 69 37 63 136 151 192
170 26 9 68 16 94 16 59 0 141 48 227 132 116 114 143 196 141 423 -1 137 1
158 26 240 26 87 37 114 124 310 69 156 85 268 60 428 -11 75 -11 78 13 103
46 50 160 83 349 100 41 3 81 11 88 17 7 5 29 39 49 75 20 36 59 94 85 129 54
70 55 68 -50 54 -271 -38 -252 1 24 48 65 12 151 36 213 60 122 48 119 39 -24
-69 -90 -69 -129 -117 -200 -245 -16 -27 -36 -61 -47 -74 -39 -50 -23 -48 163
25 123 48 379 171 458 220 45 28 46 23 3 -34 -31 -43 -97 -84 -242 -151 -164
-77 -256 -108 -356 -123 l-87 -12 -52 -81 c-134 -205 -190 -369 -245 -709 -24
-149 -24 -146 -7 -146 8 0 50 -16 94 -35 44 -19 111 -41 147 -49 37 -7 69 -16
72 -18 2 -3 -35 -4 -83 -3 -93 1 -136 16 -210 71 -17 13 -34 24 -36 24 -2 0
-10 -28 -16 -61 -36 -182 -125 -409 -214 -547 -33 -51 -42 -73 -34 -81 23 -23
14 -29 379 222 45 31 73 44 87 40 17 -4 21 -1 21 21 0 16 10 37 25 50 16 15
25 34 25 55 0 17 4 31 10 31 5 0 7 -13 4 -30 -5 -25 -3 -31 18 -39 14 -5 54
-51 94 -107 38 -54 111 -141 163 -193 l94 -95 -46 -41 c-26 -23 -47 -46 -47
-51 0 -20 90 -104 110 -104 51 0 92 41 117 118 16 51 16 54 -4 95 -11 23 -39
64 -62 92 -22 27 -41 55 -41 61 0 16 48 58 212 187 l138 108 -42 32 c-23 18
-52 52 -65 76 -13 25 -25 46 -27 48 -5 6 -177 -110 -241 -163 -95 -79 -104
-84 -132 -73 -30 11 -53 12 -53 1 0 -5 28 -41 63 -80 58 -67 183 -259 174
-268 -4 -4 -64 68 -156 186 -19 25 -80 96 -134 158 -55 62 -98 115 -95 117 2
2 20 -6 40 -20 20 -13 68 -32 107 -40 l70 -16 38 28 c21 16 57 42 79 58 23 17
66 48 95 71 30 22 75 53 101 68 26 15 48 36 52 49 8 34 71 102 112 122 62 29
160 8 222 -49 70 -63 82 -174 25 -243 -41 -51 -107 -85 -156 -79 -36 4 -44 -2
-202 -136 -91 -78 -165 -145 -165 -151 0 -5 15 -28 34 -51 18 -23 40 -55 50
-73 51 -99 -26 -273 -122 -273 -36 0 -93 28 -143 70 l-46 39 -174 -120 c-96
-67 -229 -158 -296 -202 -67 -45 -125 -90 -128 -99 -9 -26 13 -204 31 -246 8
-20 41 -64 74 -97 67 -70 125 -155 182 -274 33 -68 42 -98 46 -156 4 -65 2
-75 -18 -95 -20 -20 -27 -21 -129 -15 -169 11 -282 -27 -394 -134 -80 -76
-111 -138 -107 -216 1 -33 3 -78 3 -100 0 -110 -140 -256 -313 -325 -97 -40
-152 -51 -296 -60 -99 -6 -140 -13 -170 -28 -120 -61 -164 -181 -110 -298 17
-37 41 -64 85 -98 114 -88 168 -180 256 -437 31 -90 71 -189 88 -219 47 -83
140 -171 222 -210 62 -30 80 -33 175 -36 129 -4 185 -12 229 -30 19 -8 36 -13
38 -11 2 2 -10 22 -27 45 -40 55 -116 98 -190 106 -92 11 -87 36 6 36 51 0
105 -24 179 -80 43 -32 60 -38 120 -44 39 -4 96 -14 128 -23 32 -9 61 -12 65
-8 13 13 -85 91 -160 128 -43 21 -108 42 -156 51 -90 17 -102 21 -102 38 0 7
22 9 68 5 109 -11 228 -58 297 -119 35 -30 39 -31 138 -33 56 -1 110 -5 120
-10 17 -7 18 -6 6 12 -29 48 -192 131 -369 188 -101 33 -126 50 -59 42 74 -10
238 -65 318 -108 l74 -40 71 13 c39 7 99 11 134 10 34 -1 62 2 62 7 0 17 -65
64 -135 97 -102 49 -172 64 -345 75 -240 16 -245 18 -345 168 -99 148 -205
390 -205 465 0 39 47 121 96 167 69 65 96 82 293 184 97 50 271 150 386 221
116 72 262 159 325 193 63 35 124 70 134 79 10 10 34 51 53 92 19 41 62 120
96 175 127 209 157 289 172 457 5 66 5 68 -20 74 -14 3 -24 8 -22 10 2 2 64
-11 138 -30 240 -62 302 -68 774 -76 350 -6 445 -10 510 -24 98 -21 173 -60
197 -102 l19 -32 -66 -47 c-154 -110 -290 -281 -341 -431 -26 -74 -28 -93 -34
-324 -7 -223 -10 -254 -34 -340 -40 -142 -71 -223 -131 -345 -80 -164 -111
-199 -229 -262 -121 -65 -138 -80 -178 -161 -60 -122 -36 -263 59 -341 115
-95 294 -102 546 -21 52 16 101 30 110 30 10 0 14 6 11 13 -3 8 2 20 10 27 13
10 21 7 46 -20 16 -18 30 -37 30 -42 0 -33 37 -82 74 -99 53 -24 231 -25 401
-3 75 10 174 14 265 13 80 -2 188 -1 240 1 52 2 137 4 188 4 50 1 92 4 92 8 0
15 -67 57 -110 69 -25 6 -91 12 -147 13 -55 1 -99 4 -97 7 2 4 33 12 69 19 70
13 146 8 199 -14 20 -8 43 -10 66 -4 19 4 73 6 120 3 l85 -6 -33 29 c-62 55
-129 67 -387 67 -225 1 -305 10 -321 36 -5 8 6 9 37 3 24 -5 143 -8 264 -6
139 2 243 -1 282 -8 57 -11 69 -10 138 11 89 28 93 43 24 77 -97 48 -192 50
-494 11 -82 -10 -179 -19 -215 -19 -62 0 -71 3 -195 71 -72 40 -220 116 -330
170 -110 53 -213 109 -228 124 -77 77 -51 214 87 459 50 89 85 135 191 248
283 302 340 379 450 603 41 82 98 176 155 254 109 149 166 257 156 297 -4 15
-19 37 -34 50 -317 271 -443 368 -597 461 -158 96 -481 251 -635 307 -25 9
-126 32 -224 51 -98 19 -193 44 -210 54 -17 10 -47 21 -66 25 -101 19 -300 95
-252 96 17 0 194 -44 297 -75 44 -13 145 -38 225 -56 125 -28 163 -32 280 -32
135 0 190 9 197 30 3 7 -15 17 -39 23 -94 23 -400 125 -518 172 -214 85 -486
241 -474 272 3 7 -6 30 -20 51 -14 20 -28 52 -32 70 -5 28 -11 34 -41 40 -30
5 -33 8 -22 22 7 8 23 19 36 24 17 6 23 17 23 37 0 87 77 226 195 351 38 39
132 123 211 186 204 165 259 233 331 408 18 45 33 72 33 59 0 -45 -23 -118
-65 -207 -43 -90 -89 -147 -198 -243 l-48 -43 63 -77 c75 -92 120 -142 129
-142 3 0 9 25 13 55 3 30 15 77 26 105 12 30 20 76 21 113 l1 62 22 -70 c12
-38 28 -81 36 -95 15 -28 111 -142 116 -138 11 12 25 164 26 273 0 144 4 145
47 5 16 -50 35 -83 80 -137 33 -39 66 -73 74 -76 20 -8 22 244 2 330 -20 87
-19 88 18 13 30 -62 38 -69 142 -137 60 -40 113 -69 118 -64 20 20 -74 431
-143 618 -48 132 -127 281 -178 335 -54 58 -55 56 63 93 58 18 114 27 201 32
143 7 175 -1 299 -71 92 -53 141 -59 206 -25 51 25 73 72 64 133 -6 38 -4 46
20 70 23 23 27 33 22 67 -3 22 -13 52 -23 66 -17 27 -17 27 -33 6 -9 -11 -21
-29 -26 -38 -10 -17 -13 -17 -58 3 -34 15 -47 27 -47 41 0 24 -31 90 -43 91
-4 0 -22 -20 -39 -45 l-32 -45 -63 0 -62 0 -11 38 c-6 20 -16 48 -24 61 l-13
23 -21 -33 c-11 -19 -24 -47 -28 -62 -9 -40 -28 -43 -74 -13 -27 18 -40 34
-40 49 0 55 151 151 227 145 47 -4 53 -25 23 -82 -22 -45 -13 -60 30 -51 40 9
74 39 85 73 11 37 14 38 81 16 72 -24 77 -31 53 -83 -10 -24 -18 -45 -16 -47
12 -12 80 22 108 54 18 20 45 42 61 49 32 14 34 29 13 80 -15 35 -12 73 5 73
5 0 15 3 24 6 9 4 16 1 16 -6 0 -7 8 -18 17 -25 9 -7 29 -34 43 -61 20 -39 32
-50 63 -59 28 -8 43 -20 54 -43 18 -37 69 -72 105 -72 29 0 68 38 68 66 0 11
-11 53 -24 92 -14 39 -32 108 -41 154 -10 46 -26 102 -37 126 -28 58 -94 130
-183 197 -41 31 -75 58 -75 60 0 1 14 29 31 61 28 53 31 66 26 126 -6 85 -44
169 -124 268 -67 82 -158 161 -243 208 -154 86 -428 133 -648 111z m-944 -176
c42 -26 97 -55 122 -64 69 -28 26 -22 -53 6 -39 14 -76 24 -84 21 -7 -3 -26
14 -43 39 -17 25 -28 45 -25 45 4 0 41 -21 83 -47z m1503 -69 c60 -18 154 -63
146 -70 -2 -3 -29 5 -58 18 -45 18 -73 22 -164 22 -112 0 -162 -11 -287 -68
-56 -24 -46 -1 17 41 108 71 230 91 346 57z m-1380 -72 c52 -16 124 -35 160
-41 138 -23 286 -78 337 -124 44 -41 23 -46 -45 -11 -44 22 -131 50 -244 78
-96 24 -200 56 -229 71 -64 33 -120 75 -120 92 0 7 11 1 24 -12 13 -13 63 -36
117 -53z m1531 -108 c109 -36 208 -173 168 -234 -7 -11 -10 -8 -10 16 0 65
-102 160 -230 213 -30 13 -57 26 -60 29 -8 8 82 -8 132 -24z m-1449 -56 c14
-29 35 -91 47 -138 34 -128 75 -205 149 -278 35 -34 61 -65 58 -68 -3 -4 -27
4 -52 16 -85 41 -156 154 -190 300 -9 41 -27 105 -39 142 -13 37 -21 70 -18
73 12 12 22 2 45 -47z m1289 -16 c66 -33 228 -155 228 -172 0 -19 -16 -10 -75
41 -33 27 -94 67 -134 87 -70 35 -81 37 -165 36 -98 0 -146 -16 -215 -68 -19
-14 -46 -26 -60 -26 -26 1 -26 1 9 31 95 81 170 110 272 106 61 -3 89 -10 140
-35z m-1022 -37 c0 -11 -42 -131 -57 -163 -15 -31 -14 -34 10 -71 15 -22 52
-64 83 -95 32 -31 55 -58 52 -62 -9 -8 -137 115 -155 150 -26 50 1 213 40 238
14 9 27 10 27 3z m1061 -82 c35 -18 80 -48 99 -68 l35 -37 -38 26 c-94 62
-214 84 -344 62 -63 -10 -71 3 -15 27 61 26 65 27 133 24 50 -2 80 -10 130
-34z m-947 -3 c23 -40 59 -63 110 -70 l41 -6 -38 -13 c-63 -21 -117 15 -142
97 -9 32 8 27 29 -8z m-649 -40 c8 -16 18 -58 21 -92 6 -59 5 -62 -11 -47 -15
15 -44 117 -45 162 0 24 16 13 35 -23z m1280 10 c-3 -5 -14 -10 -23 -10 -15 0
-15 2 -2 10 20 13 33 13 25 0z m135 -44 c-5 -15 -10 -38 -10 -52 0 -27 -3 -28
-31 -14 -19 11 -54 68 -46 76 5 5 90 22 95 19 1 -1 -2 -14 -8 -29z m209 -16
c10 -5 26 -21 35 -35 15 -22 15 -29 4 -43 -11 -14 -11 -15 7 -8 52 21 60 17
26 -13 -39 -35 -138 -71 -190 -71 -49 1 -98 20 -179 69 -38 23 -92 47 -120 53
-57 14 -65 24 -27 34 47 12 82 0 235 -81 52 -28 118 -32 160 -10 24 13 30 22
30 50 0 18 -4 37 -10 40 -13 8 -13 25 1 25 6 0 18 -4 28 -10z m-1896 -54 c23
-13 68 -30 100 -37 77 -17 74 -34 -5 -25 -76 9 -123 28 -137 54 -21 40 -15 41
42 8z m2007 -146 c-25 -35 -97 -80 -129 -80 -12 0 -32 -5 -44 -12 -19 -10 -20
-9 -9 4 10 13 3 16 -62 21 -76 7 -167 35 -202 63 -19 15 -19 16 1 8 65 -23
159 -35 250 -32 82 3 110 8 155 30 30 15 56 27 58 27 2 1 -6 -12 -18 -29z
m-667 -60 c48 -28 87 -56 87 -61 0 -18 -38 -8 -73 19 -19 15 -56 43 -81 62
-25 19 -48 41 -51 49 -5 12 -2 12 12 -1 10 -8 57 -39 106 -68z m-233 14 c0
-18 -16 -42 -55 -80 -58 -56 -83 -65 -106 -37 -8 9 -38 27 -66 39 -48 21 -72
39 -40 30 6 -3 49 -7 94 -10 l82 -6 43 45 c23 25 44 45 45 45 2 0 3 -12 3 -26z
m1031 10 c25 -11 52 -33 70 -57 41 -56 36 -68 -9 -24 -36 35 -84 57 -124 57
-10 0 -33 -13 -51 -30 -60 -52 -82 -28 -24 27 50 47 74 52 138 27z m-341 -82
c0 -12 -74 -63 -147 -102 -34 -18 -89 -57 -122 -86 -111 -101 -149 -227 -101
-333 25 -55 20 -63 -13 -19 -81 110 -54 245 77 374 49 47 91 76 176 118 113
56 130 63 130 48z m583 -129 c26 -47 45 -89 42 -91 -9 -9 -36 8 -45 30 -36 89
-57 148 -50 148 4 0 28 -39 53 -87z m-220 31 c5 -30 -19 -63 -65 -88 -34 -18
-35 -18 -81 2 -29 13 -54 33 -67 54 -37 62 -20 66 38 8 30 -30 48 -40 71 -40
42 0 72 17 70 38 -1 9 -1 30 0 46 1 23 4 26 15 17 8 -6 16 -23 19 -37z m-1483
-74 c0 -92 20 -130 67 -130 16 0 24 -8 29 -27 10 -42 23 -53 64 -53 47 0 84
28 114 88 30 58 63 95 107 117 19 10 44 27 57 38 44 40 21 -1 -30 -54 -29 -30
-66 -79 -82 -109 -53 -100 -109 -139 -180 -126 -37 7 -59 28 -75 69 -9 22 -17
27 -46 27 -47 0 -67 32 -69 108 -1 58 19 126 35 116 5 -3 9 -32 9 -64z m-315
23 c-23 -60 -37 -142 -42 -240 -5 -93 -2 -128 16 -206 62 -269 229 -458 442
-503 60 -12 86 -13 138 -4 81 14 171 55 239 109 30 24 56 40 59 38 10 -10 -85
-102 -139 -134 -109 -66 -236 -79 -363 -39 -98 31 -160 72 -239 157 -92 99
-159 236 -186 379 -16 81 -13 245 5 314 21 79 51 146 66 146 7 0 8 -7 4 -17z
m219 -450 c33 -102 111 -222 175 -268 63 -46 138 -69 201 -60 58 8 169 59 224
104 39 31 66 40 66 21 0 -22 -96 -106 -150 -131 -160 -77 -298 -51 -424 81
-64 67 -129 191 -152 288 -18 76 -14 230 7 297 13 38 14 32 20 -105 5 -117 12
-161 33 -227z m1392 40 c34 -18 75 -53 62 -53 -2 0 -28 9 -58 19 -30 11 -81
22 -112 25 -32 3 -83 9 -113 12 -30 3 -55 10 -55 16 0 7 41 9 118 6 95 -3 125
-8 158 -25z m-870 -62 c48 -19 128 -32 289 -47 108 -10 48 -25 -115 -28 l-136
-3 -92 -48 c-76 -40 -95 -47 -114 -38 -21 9 -16 14 60 52 46 23 86 48 89 57 3
8 -4 25 -16 38 -18 19 -27 36 -18 36 1 0 25 -9 53 -19z m-1050 -322 c-96 -202
-88 -388 20 -496 47 -47 43 -56 -9 -21 -109 71 -146 251 -87 413 21 55 100
189 107 181 2 -2 -12 -36 -31 -77z m-1527 -235 c1 -29 -11 -96 -25 -150 -44
-164 -53 -213 -64 -349 -18 -209 -20 -222 -32 -201 -7 12 -9 78 -5 185 5 150
9 182 46 331 24 95 41 189 41 222 0 31 3 65 7 75 10 26 31 -47 32 -113z m2021
-147 c-24 -119 -101 -237 -211 -324 -109 -85 -308 -217 -316 -209 -9 9 11 27
202 181 77 62 157 130 177 151 48 51 102 141 122 207 9 28 20 59 23 67 12 31
15 -19 3 -73z m-950 -102 c0 -37 -4 -65 -10 -65 -6 0 -10 28 -10 65 0 37 4 65
10 65 6 0 10 -28 10 -65z m-339 -864 c35 -28 20 -31 -26 -5 -31 18 -35 24 -19
24 12 0 32 -9 45 -19z m-136 -31 c4 -6 10 -8 15 -5 10 6 40 -4 40 -14 0 -4
-13 -6 -29 -3 -99 14 -213 -115 -156 -178 17 -18 14 -40 -6 -40 -5 0 -21 11
-34 25 -31 30 -33 77 -4 125 26 42 41 55 94 80 45 22 71 25 80 10z m256 -21
c17 -12 42 -25 57 -29 l27 -8 -28 -1 c-15 -1 -35 3 -45 9 -9 5 -29 14 -44 20
-16 5 -28 14 -28 20 0 17 30 11 61 -11z m-1511 -80 c-13 -11 -66 -46 -118 -76
l-93 -56 -44 -86 c-24 -47 -50 -95 -58 -106 -27 -35 -31 -6 -8 48 13 28 33 81
46 116 l23 63 124 59 c128 62 172 74 128 38z m242 -34 c-1 -6 -78 -55 -170
-110 -182 -109 -182 -110 -282 -274 -52 -87 -70 -107 -70 -77 0 8 33 79 73
158 l72 143 174 88 c159 80 211 99 203 72z m122 -110 c-53 -106 -170 -200
-264 -212 -36 -5 -45 -12 -84 -72 -45 -67 -175 -201 -195 -201 -22 0 -10 31
28 73 67 73 110 137 121 176 9 35 15 40 72 61 51 18 78 39 157 115 106 103
184 156 189 129 2 -8 -9 -40 -24 -69z m871 55 c-10 -11 -20 -18 -23 -15 -7 6
18 35 31 35 5 0 2 -9 -8 -20z m1001 -35 c60 -9 123 -19 139 -24 l30 -8 -29 -8
c-63 -17 -366 12 -366 35 0 24 79 25 226 5z m-532 -427 c8 -32 7 -40 -3 -34
-11 7 -21 56 -11 56 4 0 10 -10 14 -22z m1093 -116 c96 -52 272 -257 232 -271
-15 -5 -86 11 -71 16 21 8 14 29 -32 90 -38 53 -125 134 -196 186 -24 17 -24
17 -3 12 13 -4 44 -18 70 -33z m-289 -110 c90 -35 272 -96 355 -120 31 -9 57
-20 57 -26 0 -34 -310 50 -476 130 -51 24 -96 44 -102 44 -11 0 -62 57 -62 70
0 4 34 -9 75 -30 42 -21 110 -51 153 -68z m-80 -124 c34 -49 184 -350 178
-355 -2 -2 -46 5 -97 15 -163 34 -299 100 -449 221 -67 53 -82 71 -95 112 -9
27 -21 51 -26 54 -5 4 -9 11 -9 17 0 6 43 -31 95 -81 149 -141 208 -181 389
-257 85 -36 101 -40 110 -25 3 5 -35 92 -84 194 -50 101 -90 190 -90 196 0 14
33 -24 78 -91z m-1072 -268 c10 -25 29 -62 42 -83 l26 -38 12 48 c7 26 33 104
59 172 25 68 49 144 52 169 9 64 20 33 26 -73 7 -134 33 -194 120 -277 63 -61
150 -119 160 -108 2 3 22 70 46 150 23 80 45 151 47 159 4 11 7 12 16 3 9 -9
9 -28 1 -74 -5 -35 -7 -65 -3 -68 3 -3 17 -26 29 -52 29 -61 95 -119 188 -165
40 -20 73 -40 73 -45 0 -22 -151 46 -204 92 -37 33 -86 115 -86 145 0 8 -3 15
-7 15 -9 0 -63 -148 -63 -171 0 -8 24 -26 52 -41 l53 -25 -60 1 -60 1 -22 -60
c-11 -33 -34 -108 -49 -167 -15 -60 -31 -108 -36 -108 -5 0 -5 12 -1 28 4 15
7 68 8 117 0 89 -1 91 -55 200 -30 61 -75 139 -101 175 -52 73 -69 102 -79
139 -6 23 -10 16 -37 -54 -17 -44 -37 -108 -44 -142 -7 -35 -16 -63 -20 -63
-14 0 -70 73 -98 128 -15 31 -34 82 -41 112 -17 70 -26 80 -35 38 -16 -70
-130 -279 -152 -278 -8 1 -50 64 -76 116 -24 48 -37 142 -26 199 15 78 25 72
32 -17 8 -110 49 -228 78 -228 15 0 131 246 164 345 l30 90 12 -130 c7 -71 20
-150 29 -175z m2401 -867 c-19 -59 -52 -162 -73 -228 -42 -134 -194 -449 -243
-505 l-31 -35 30 61 c65 136 181 426 225 564 21 68 114 264 121 257 3 -3 -10
-54 -29 -114z m-2477 -187 c0 -3 -23 -32 -50 -65 -65 -78 -226 -185 -505 -336
-38 -21 -112 -62 -164 -92 -52 -30 -88 -47 -81 -37 22 26 221 154 405 259 201
116 296 179 350 235 38 39 45 45 45 36z m-1150 -630 c0 -3 -22 -12 -50 -21
-146 -49 -105 -212 48 -188 23 4 54 25 95 62 l60 56 -36 -51 c-20 -28 -48 -76
-62 -105 l-26 -54 5 42 4 41 -54 -5 c-65 -7 -104 8 -127 46 -39 66 -12 130 65
160 52 19 78 25 78 17z m2914 -561 c-28 -68 -15 -124 36 -150 82 -42 158 6
161 103 l1 27 10 -28 c15 -42 1 -111 -29 -141 -46 -46 -144 -29 -198 36 -32
38 -32 75 0 138 29 57 41 67 19 15z m-2609 -140 c41 -64 79 -139 66 -131 -5 4
-24 31 -41 62 -18 30 -59 91 -91 135 -32 43 -59 82 -59 85 0 11 92 -101 125
-151z m3170 -174 c95 -50 232 -147 222 -158 -3 -2 -45 22 -94 55 -48 32 -121
78 -160 101 -40 23 -85 53 -100 67 l-28 26 30 -20 c17 -10 75 -42 130 -71z"/>
<path d="M4714 4055 c13 -19 32 -55 42 -80 11 -25 22 -45 25 -45 3 0 11 17 18
38 7 20 14 42 17 48 4 11 -97 74 -117 74 -5 0 2 -16 15 -35z"/>
<path d="M8054 8186 c-84 -88 -167 -199 -259 -344 -85 -135 -91 -165 -55 -260
31 -82 27 -127 -15 -169 -34 -34 -38 -35 -93 -31 -31 3 -63 7 -70 9 -31 9
-175 -382 -242 -654 -57 -234 -110 -585 -110 -731 l0 -35 65 18 c120 34 151
68 200 221 28 86 50 123 99 165 26 22 71 64 100 92 29 29 70 60 90 68 20 8 36
19 36 23 0 15 -24 39 -62 61 -49 29 -82 97 -73 150 24 143 189 221 343 162 44
-16 52 -17 77 -3 40 20 157 12 211 -16 48 -24 110 -91 130 -138 29 -69 11
-138 -48 -190 -39 -34 -125 -78 -173 -88 -27 -6 -65 -50 -65 -75 0 -5 22 -6
49 -3 43 4 53 1 75 -21 19 -19 26 -37 26 -65 0 -36 3 -40 32 -46 18 -3 45 -18
60 -33 38 -37 45 -80 19 -137 -18 -42 -18 -46 -3 -47 9 0 -9 -8 -41 -19 -75
-24 -90 -36 -76 -62 6 -12 9 -36 6 -54 -7 -40 0 -42 59 -15 26 12 53 36 73 65
18 25 36 46 41 46 22 0 7 -49 -27 -89 -29 -35 -34 -45 -22 -53 10 -7 9 -8 -7
-3 -13 3 -26 0 -33 -9 -7 -8 -35 -22 -62 -31 -37 -13 -49 -21 -45 -32 3 -8 6
-32 6 -53 l0 -39 38 6 c56 9 90 29 117 74 29 46 48 44 34 -3 -11 -41 -64 -95
-103 -107 -53 -17 -196 -41 -242 -41 -41 0 -44 -2 -44 -27 0 -58 28 -210 44
-241 21 -41 55 -62 113 -73 26 -5 57 -16 71 -25 51 -33 67 -135 33 -210 -49
-107 -195 -156 -276 -92 -26 21 -29 21 -74 5 -94 -34 -211 -13 -259 47 -50 64
-37 127 42 204 54 53 86 104 86 139 0 10 -7 66 -16 126 l-17 107 -55 16 c-87
26 -125 16 -259 -64 -65 -39 -154 -95 -198 -124 l-80 -53 3 -60 c5 -98 40
-352 67 -486 105 -515 302 -1000 540 -1324 72 -98 176 -215 190 -215 7 0 55
44 106 98 447 466 761 1228 859 2087 83 715 23 1328 -180 1865 -163 432 -429
792 -654 885 l-39 17 -63 -66z m197 -143 c411 -545 612 -1310 570 -2170 -29
-572 -133 -1062 -341 -1593 -95 -242 -320 -665 -418 -786 -29 -36 -29 -37 56
121 95 176 219 443 296 639 335 849 439 1789 285 2596 -85 447 -304 968 -531
1268 -61 80 -67 92 -24 52 21 -19 69 -77 107 -127z"/>
<path d="M3100 8091 c-211 -78 -366 -184 -518 -355 -274 -308 -408 -746 -374
-1220 19 -261 59 -449 149 -695 45 -126 134 -314 153 -326 5 -3 27 11 47 32
21 21 56 52 77 69 l39 31 -70 159 c-178 403 -246 752 -214 1094 28 287 107
516 258 745 65 98 193 237 263 285 l35 25 -38 -45 c-161 -191 -244 -305 -298
-411 -211 -420 -236 -883 -73 -1384 56 -173 168 -435 185 -435 4 0 34 7 66 15
76 20 85 19 81 -6 -2 -16 -19 -27 -66 -44 -89 -32 -262 -150 -262 -179 0 -6 9
-24 19 -40 l19 -28 75 69 c72 67 186 136 268 162 l35 11 -51 103 c-211 421
-305 818 -277 1169 37 446 198 821 492 1140 34 38 60 72 58 77 -1 5 -37 -3
-78 -18z"/>
<path d="M7802 6883 c-39 -19 -89 -75 -98 -108 -11 -46 6 -79 79 -147 40 -38
77 -68 82 -68 6 0 22 -6 37 -14 25 -13 28 -12 63 24 33 34 37 43 31 72 -3 19
-19 47 -35 62 -27 26 -34 28 -74 22 -49 -8 -67 4 -47 29 16 20 102 20 140 0
79 -41 81 -146 3 -210 -27 -23 -104 -217 -91 -231 9 -9 151 15 163 28 6 7 23
46 36 86 13 40 33 81 44 91 11 9 47 25 80 35 126 38 175 79 175 148 0 47 -17
83 -62 125 -64 61 -168 82 -242 47 -32 -16 -36 -16 -78 5 -55 26 -157 28 -206
4z m450 -120 c24 -29 28 -51 11 -64 -13 -11 -18 -10 -33 9 -22 27 -31 27 -78
3 -80 -40 -88 -35 -27 17 64 55 101 65 127 35z"/>
<path d="M7742 6485 c-30 -38 -28 -42 18 -50 49 -8 44 -21 -13 -30 -72 -12
-115 -35 -160 -85 -35 -39 -48 -65 -72 -146 -52 -175 -105 -210 -410 -269
-104 -20 -234 -47 -288 -62 -54 -14 -100 -24 -102 -22 -2 2 -10 42 -18 89 -23
129 -27 135 -106 175 -39 19 -72 35 -74 35 -3 0 -7 -53 -11 -117 -4 -65 -9
-126 -12 -136 -5 -17 -7 -17 -32 -1 -49 31 -84 68 -135 144 -27 41 -47 64 -43
50 4 -14 10 -35 13 -47 3 -11 -7 -63 -22 -114 -15 -51 -25 -103 -22 -116 6
-33 -15 -18 -102 71 -40 42 -74 76 -76 76 -7 0 -36 -151 -30 -160 3 -5 13 -10
21 -10 8 0 13 -4 10 -9 -3 -5 7 -24 22 -44 28 -35 37 -53 87 -182 33 -86 104
-194 153 -235 84 -69 230 -94 390 -66 169 29 294 83 475 205 153 102 293 189
358 222 49 24 72 29 137 30 44 1 85 -1 91 -6 10 -5 11 4 4 41 -12 75 -5 180
17 262 20 74 20 75 2 96 -52 57 -52 117 -1 160 48 41 65 34 29 -11 -25 -32
-26 -85 -2 -107 18 -15 23 -15 83 14 41 19 95 34 149 41 99 13 154 38 175 79
59 115 -61 166 -155 65 -37 -40 -73 -55 -129 -55 -71 0 -97 26 -103 105 -4 42
-1 70 10 92 9 18 13 35 10 38 -3 4 -30 9 -60 12 -51 5 -56 4 -76 -22z m-463
-832 c-17 -20 -171 -94 -256 -122 -78 -26 -232 -53 -281 -49 -31 3 -20 7 63
27 122 28 377 111 431 139 48 26 61 27 43 5z"/>
<path d="M8257 6200 c-26 -27 -27 -31 -13 -46 24 -23 21 -74 -3 -74 -14 0 -21
8 -23 28 -3 27 -3 27 -92 30 -125 4 -222 -25 -240 -71 -20 -48 -28 -105 -17
-112 6 -3 27 3 48 13 65 33 164 59 255 67 57 4 91 12 99 22 7 8 25 21 41 29
29 15 58 60 58 92 0 25 -31 52 -61 52 -14 0 -36 -13 -52 -30z"/>
<path d="M8035 5975 c-168 -39 -179 -45 -183 -84 l-3 -34 171 7 c210 9 220 12
220 65 0 30 -6 44 -22 55 -29 21 -63 19 -183 -9z"/>
<path d="M7840 5802 c0 -61 22 -95 53 -83 12 5 60 10 107 12 64 3 84 1 83 -8
-4 -17 108 -18 125 -1 7 7 12 26 12 43 0 51 -12 55 -151 55 -87 0 -140 5 -169
15 -23 8 -46 15 -51 15 -5 0 -9 -21 -9 -48z"/>
<path d="M4990 5718 c-78 -52 -89 -134 -28 -204 58 -66 117 -80 186 -45 127
65 74 254 -75 268 -39 4 -55 0 -83 -19z"/>
<path d="M7877 5613 c3 -43 11 -116 18 -163 16 -106 8 -130 -69 -203 -91 -87
-105 -151 -43 -203 28 -24 37 -26 103 -22 58 3 77 8 97 26 13 12 27 22 30 22
4 0 21 -16 38 -35 27 -30 37 -35 75 -35 119 0 203 111 161 212 -16 38 -20 40
-121 63 -44 10 -92 64 -111 126 -9 30 -19 105 -22 172 l-6 117 -77 0 -77 0 4
-77z m276 -431 c18 -16 23 -57 8 -66 -4 -3 -18 5 -30 18 -20 21 -29 22 -116
20 -68 -1 -102 -6 -120 -18 -13 -9 -27 -16 -30 -16 -13 0 -3 42 13 58 16 16
36 19 138 19 94 1 123 -2 137 -15z"/>
<path d="M4155 5218 c-490 -364 -768 -559 -801 -561 -25 -2 -30 3 -46 48 -41
110 -91 205 -108 205 -24 0 -89 -49 -137 -105 l-42 -47 29 -57 c32 -61 60
-135 60 -157 0 -8 -9 -22 -19 -31 -15 -12 -17 -21 -11 -34 7 -12 5 -23 -8 -37
-9 -11 -188 -142 -397 -292 -673 -484 -982 -727 -1248 -979 -80 -77 -217 -231
-217 -245 0 -8 162 51 300 109 133 56 446 214 617 311 409 231 1012 621 1930
1246 423 287 503 346 503 366 0 6 -51 61 -113 124 -62 62 -131 135 -152 162
l-40 48 -100 -74z m153 -172 c-5 -22 -1099 -797 -1733 -1227 -137 -94 -311
-212 -385 -262 -228 -157 -547 -354 -556 -344 -6 5 67 58 246 177 69 46 204
140 300 209 96 69 265 186 375 261 229 154 261 176 463 318 81 57 193 126 248
152 84 41 112 60 160 113 38 41 121 107 229 182 94 65 248 174 342 242 243
175 320 219 311 179z m-958 -476 c0 -47 -95 -120 -155 -120 -38 0 -31 12 33
53 32 20 68 51 81 67 23 32 41 32 41 0z"/>
</g>
</svg>
